<svg version="1.1" xmlns="http://www.w3.org/2000/svg" x="0" y="0" viewBox="0 0 624 312">
<style type="text/css">
	#fenster rect { fill: transparent; stroke: black; stroke-width: 6px; }
</style>
<g id="kontur">
	<path d="M615.83246,47.06829l-38.82501-41.399H44.94332L6.04629,47.16228h-0.377v257.68207h610.16315V47.17827h-0.04999
		L615.83246,47.06829z M47.47231,11.50828h527.0072l33.45197,35.66999L14.03529,47.16228L47.47231,11.50828z M366.87338,218.90332
		c-11.07001,0-20.07501,9.26599-20.07501,20.65401v19.019h-5.492h-3.422h-2.07501v-24.49802c0-14.215-11.24097-25.78-25.05896-25.78
		s-25.05804,11.565-25.05804,25.78v24.49802h-2.50098h-2.99597h-5.49203v-19.019c0-11.38802-9.005-20.65401-20.075-20.65401
		c-11.07101,0-20.07603,9.26599-20.07603,20.65401v19.019h-22.948v-60.90399h197.70609v60.90399H386.9494v-19.019
		C386.9494,228.16931,377.94339,218.90332,366.87338,218.90332 M381.67136,239.55733v19.019h-29.59601v-19.019
		c0-8.47801,6.63904-15.377,14.79803-15.377S381.67136,231.07932,381.67136,239.55733 M335.46738,272.20035h-49.43298v-7.78503
		h49.43298V272.20035z M291.5314,258.57632v-24.49802c0-10.99597,8.62097-19.94199,19.21899-19.94199
		c10.599,0,19.21997,8.94601,19.21997,19.94199v24.49802H291.5314z M344.3284,285.90634h-67.15497v-7.54199h67.15497V285.90634z
		 M269.42538,239.55733v19.019h-29.59602v-19.019c0-8.47801,6.63901-15.377,14.798-15.377
		C262.78635,224.18033,269.42538,231.07932,269.42538,239.55733 M211.60434,53.01727h197.70609v138.81601H211.60434V53.01727z
		 M11.5083,53.01727h194.25705v16.22302H11.5083V53.01727z M11.5083,75.07928h194.25705V258.5773H11.5083V75.07928z
		 M262.58035,299.00534H11.5083v-34.59003h268.6871v8.11005h-8.86102v13.46201h-8.75403V299.00534z M353.08237,299.00534h-84.664
		v-7.17899h84.664V299.00534z M609.99347,299.00534H358.92136v-13.01797h-8.75397v-13.46201h-8.86102v-8.11005h268.6871V299.00534z
		 M609.99347,258.57632H415.14941V75.07831h194.84406V258.57632z M609.99347,69.24029H415.14941V53.01727h194.84406V69.24029z"/>
</g>
<g id="fenster">
	<rect x="25.558" y="89.894" width="27.932" height="34.716"/>
	<rect x="25.558" y="148.287" width="27.932" height="34.716"/>
	<rect x="25.558" y="206.679" width="27.932" height="34.716"/>
	<rect x="72.272" y="89.894" width="27.932" height="34.716"/>
	<rect x="72.272" y="148.287" width="27.932" height="34.716"/>
	<rect x="72.272" y="206.679" width="27.932" height="34.716"/>
	<rect x="118.985" y="89.894" width="27.932" height="34.716"/>
	<rect x="118.985" y="148.287" width="27.932" height="34.716"/>
	<rect x="118.985" y="206.679" width="27.932" height="34.716"/>
	<rect x="165.699" y="89.894" width="27.932" height="34.716"/>
	<rect x="165.699" y="148.287" width="27.932" height="34.716"/>
	<rect x="227.752" y="140.501" width="27.932" height="34.716"/>
	<rect x="227.752" y="86.001" width="27.932" height="34.716"/>
	<rect x="274.4668" y="140.501" width="27.932" height="34.715"/>
	<rect x="274.4668" y="86.001" width="27.932" height="34.716"/>
	<rect x="321.1803" y="140.501" width="27.932" height="34.716"/>
	<rect x="321.1803" y="86.001" width="27.932" height="34.716"/>
	<rect x="367.895" y="140.501" width="27.932" height="34.716"/>
	<rect x="367.895" y="86.001" width="27.932" height="34.716"/>
	<rect x="165.699" y="206.679" width="27.932" height="34.716"/>
	<rect x="428.027" y="89.894" width="27.931" height="34.716"/>
	<rect x="428.027" y="148.287" width="27.931" height="34.715"/>
	<rect x="428.027" y="206.679" width="27.931" height="34.715"/>
	<rect x="474.742" y="89.894" width="27.930" height="34.716"/>
	<rect x="474.742" y="148.287" width="27.930" height="34.715"/>
	<rect x="474.742" y="206.679" width="27.930" height="34.715"/>
	<rect x="521.455" y="89.894" width="27.930" height="34.716"/>
	<rect x="521.455" y="148.287" width="27.930" height="34.715"/>
	<rect x="521.455" y="206.679" width="27.930" height="34.715"/>
	<rect x="568.168" y="89.894" width="27.931" height="34.716"/>
	<rect x="568.168" y="148.287" width="27.931" height="34.715"/>
	<rect x="568.168" y="206.679" width="27.931" height="34.715"/>
</g>
</svg>
