<svg version="1.1" xmlns="http://www.w3.org/2000/svg"  x="0px" y="0px" viewBox="0 0 256 256" xml:space="preserve">
<path fill="#fff" d="M157.5,49.3h39.3c8.1,0,15.1,2.9,20.9,8.6s8.6,12.7,8.6,20.9v137.7c0,8.1-2.9,15.1-8.6,20.9c-5.8,5.8-12.7,8.6-20.9,8.6H59.2c-8.1,0-15.1-2.9-20.9-8.6c-5.8-5.8-8.6-12.7-8.6-20.9V78.8c0-8.1,2.9-15.1,8.6-20.9c5.8-5.8,12.7-8.6,20.9-8.6h39.3V69H59.2c-2.7,0-5,1-7,2.9c-1.9,1.9-2.9,4.2-2.9,7v137.7c0,2.7,1,5,2.9,7c1.9,1.9,4.2,2.9,7,2.9h137.7c2.7,0,5-1,7-2.9c1.9-1.9,2.9-4.2,2.9-7V78.8c0-2.7-1-5-2.9-7c-1.9-1.9-4.2-2.9-7-2.9h-39.3V49.3z M128,10c2.7,0,5,1,7,2.9c1.9,1.9,2.9,4.2,2.9,7v123.8l22.5-22.6c1.9-1.9,4.2-2.8,7-2.8c2.8,0,5.2,0.9,7,2.8c1.9,1.9,2.8,4.2,2.8,7c0,2.8-0.9,5.1-2.8,7L135,174.3c-1.9,1.9-4.2,2.8-7,2.8s-5.1-0.9-7-2.8L81.7,135c-1.9-2-2.8-4.3-2.8-7c0-2.7,1-5,2.9-7c1.9-1.9,4.2-2.9,7-2.9c2.8,0,5.1,0.9,7,2.8l22.5,22.6V19.8c0-2.7,1-5,2.9-7C123,11,125.3,10,128,10z" />
</svg>
