<svg version="1.1" xmlns="http://www.w3.org/2000/svg" xmlns:xlink="http://www.w3.org/1999/xlink" x="0px" y="0px" viewBox="0 0 544 277" style="enable-background:new 0 0 544 277;" xml:space="preserve">
<style type="text/css">
	.st0{fill:none;stroke:#000;stroke-width:0.70866;stroke-miterlimit:10;}
	.st1{fill:none;stroke:#000;stroke-width:0.70866;stroke-miterlimit:10;}
</style>
<g>
	<line class="st0" x1="183.85783" y1="49.57581" x2="183.85783" y2="236.82732"/>
	<line class="st0" x1="95.41372" y1="75.97704" x2="95.41372" y2="236.82732"/>
	<line class="st0" x1="29.47123" y1="75.97704" x2="29.47123" y2="236.82732"/>
	<line class="st0" x1="53.74025" y1="75.97704" x2="53.74025" y2="236.82732"/>
	<line class="st0" x1="272.65323" y1="262.43549" x2="14.22993" y2="262.43573"/>
	<line class="st0" x1="272.65323" y1="237.02576" x2="14.22993" y2="237.02455"/>
	<line class="st0" x1="272.65323" y1="201.38297" x2="183.91843" y2="201.38289"/>
	<line class="st0" x1="219.56476" y1="224.08101" x2="183.91843" y2="224.08092"/>
	<line class="st0" x1="252.43683" y1="224.08101" x2="243.83379" y2="224.08092"/>
	<line class="st0" x1="252.43683" y1="230.55281" x2="183.91843" y2="230.55273"/>
	<line class="st0" x1="272.65323" y1="84.8877" x2="183.91843" y2="84.88746"/>
	<line class="st0" x1="272.65323" y1="188.5137" x2="183.91843" y2="188.51228"/>
	<line class="st0" x1="37.56223" y1="94.12794" x2="37.56223" y2="117.55903"/>
	<line class="st0" x1="45.65064" y1="94.12794" x2="45.65064" y2="117.55903"/>
	<line class="st0" x1="53.74025" y1="94.12789" x2="29.47123" y2="94.12789"/>
	<line class="st0" x1="53.74025" y1="99.73815" x2="29.47123" y2="99.73815"/>
	<line class="st0" x1="53.74025" y1="117.55898" x2="29.47123" y2="117.55898"/>
	<line class="st0" x1="37.56097" y1="201.38293" x2="37.56097" y2="224.81403"/>
	<line class="st0" x1="45.65064" y1="201.38293" x2="45.65064" y2="224.81403"/>
	<line class="st0" x1="37.56101" y1="242.49655" x2="37.56101" y2="257.57352"/>
	<line class="st0" x1="45.65068" y1="242.49655" x2="45.65068" y2="257.57352"/>
	<line class="st0" x1="53.74025" y1="201.38289" x2="29.47123" y2="201.38289"/>
	<line class="st0" x1="53.74025" y1="206.99315" x2="29.47123" y2="206.99315"/>
	<line class="st0" x1="53.74025" y1="224.81398" x2="29.47123" y2="224.81398"/>
	<line class="st0" x1="52.40384" y1="250.30669" x2="30.80765" y2="250.30669"/>
	<g>
		<line class="st0" x1="37.56097" y1="169.29958" x2="37.56097" y2="190.56079"/>
		<line class="st0" x1="45.65065" y1="169.29958" x2="45.65065" y2="190.56079"/>
		<line class="st0" x1="53.74025" y1="169.29951" x2="29.47123" y2="169.29951"/>
		<line class="st0" x1="53.74025" y1="174.90977" x2="29.47123" y2="174.90977"/>
		<line class="st0" x1="53.74025" y1="190.56079" x2="29.47123" y2="190.56079"/>
	</g>
	<g>
		<line class="st0" x1="37.56097" y1="132.4861" x2="37.56097" y2="155.91719"/>
		<line class="st0" x1="45.65064" y1="132.4861" x2="45.65064" y2="155.91719"/>
		<line class="st0" x1="53.74025" y1="132.48605" x2="29.47123" y2="132.48605"/>
		<line class="st0" x1="53.74025" y1="138.09631" x2="29.47123" y2="138.09631"/>
		<line class="st0" x1="53.74025" y1="155.91714" x2="29.47123" y2="155.91714"/>
	</g>
	<g>
		<line class="st0" x1="190.09978" y1="84.8875" x2="190.09978" y2="188.51231"/>
		<line class="st0" x1="214.3688" y1="84.8875" x2="214.3688" y2="188.51231"/>
		<g>
			<line class="st0" x1="198.1895" y1="94.12794" x2="198.1895" y2="117.55903"/>
			<line class="st0" x1="206.27916" y1="94.12794" x2="206.27916" y2="117.55903"/>
			<line class="st0" x1="214.36877" y1="94.12789" x2="190.09976" y2="94.12789"/>
			<line class="st0" x1="214.36877" y1="99.73815" x2="190.09976" y2="99.73815"/>
			<line class="st0" x1="214.36877" y1="117.55898" x2="190.09976" y2="117.55898"/>
		</g>
		<line class="st0" x1="198.18951" y1="169.29958" x2="198.18951" y2="188.5123"/>
		<line class="st0" x1="206.27917" y1="169.29958" x2="206.27917" y2="188.5123"/>
		<line class="st0" x1="214.36877" y1="169.29951" x2="190.09976" y2="169.29951"/>
		<line class="st0" x1="214.36877" y1="174.90977" x2="190.09976" y2="174.90977"/>
		<g>
			<line class="st0" x1="198.1895" y1="132.4861" x2="198.1895" y2="155.91719"/>
			<line class="st0" x1="206.27916" y1="132.4861" x2="206.27916" y2="155.91719"/>
			<line class="st0" x1="214.36877" y1="132.48605" x2="190.09976" y2="132.48605"/>
			<line class="st0" x1="214.36877" y1="138.09631" x2="190.09976" y2="138.09631"/>
			<line class="st0" x1="214.36877" y1="155.91714" x2="190.09976" y2="155.91714"/>
		</g>
	</g>
	<g>
		<line class="st0" x1="225.30905" y1="84.8875" x2="225.30905" y2="188.51231"/>
		<line class="st0" x1="249.57806" y1="84.8875" x2="249.57806" y2="188.51231"/>
		<g>
			<line class="st0" x1="233.39876" y1="94.12794" x2="233.39876" y2="117.55903"/>
			<line class="st0" x1="241.48843" y1="94.12794" x2="241.48843" y2="117.55903"/>
			<line class="st0" x1="249.57805" y1="94.12789" x2="225.30902" y2="94.12789"/>
			<line class="st0" x1="249.57805" y1="99.73815" x2="225.30902" y2="99.73815"/>
			<line class="st0" x1="249.57805" y1="117.55898" x2="225.30902" y2="117.55898"/>
		</g>
		<line class="st0" x1="233.39877" y1="169.29958" x2="233.39877" y2="188.5123"/>
		<line class="st0" x1="241.48845" y1="169.29958" x2="241.48845" y2="188.5123"/>
		<line class="st0" x1="249.57805" y1="169.29951" x2="225.30902" y2="169.29951"/>
		<line class="st0" x1="249.57805" y1="174.90977" x2="225.30902" y2="174.90977"/>
		<g>
			<line class="st0" x1="233.39876" y1="132.4861" x2="233.39876" y2="155.91719"/>
			<line class="st0" x1="241.48843" y1="132.4861" x2="241.48843" y2="155.91719"/>
			<line class="st0" x1="249.57805" y1="132.48605" x2="225.30902" y2="132.48605"/>
			<line class="st0" x1="249.57805" y1="138.09631" x2="225.30902" y2="138.09631"/>
			<line class="st0" x1="249.57805" y1="155.91714" x2="225.30902" y2="155.91714"/>
		</g>
	</g>
	<line class="st0" x1="260.51874" y1="84.8875" x2="260.51874" y2="188.51231"/>
	<line class="st0" x1="268.60843" y1="94.12794" x2="268.60843" y2="117.55903"/>
	<line class="st0" x1="272.65323" y1="94.12789" x2="260.51871" y2="94.12789"/>
	<line class="st0" x1="272.65323" y1="99.73815" x2="260.51871" y2="99.73815"/>
	<line class="st0" x1="272.65323" y1="117.55898" x2="260.51871" y2="117.55898"/>
	<line class="st0" x1="268.60846" y1="169.29958" x2="268.60846" y2="188.5123"/>
	<line class="st0" x1="265.33554" y1="188.5123" x2="265.33554" y2="201.38297"/>
	<line class="st0" x1="272.65323" y1="188.5123" x2="272.65323" y2="201.38297"/>
	<line class="st0" x1="187.67909" y1="188.5123" x2="187.67909" y2="201.38297"/>
	<line class="st0" x1="194.73877" y1="188.5123" x2="194.73877" y2="201.38297"/>
	<line class="st0" x1="201.79845" y1="188.5123" x2="201.79845" y2="201.38297"/>
	<line class="st0" x1="208.85812" y1="188.5123" x2="208.85812" y2="201.38297"/>
	<line class="st0" x1="215.9178" y1="188.5123" x2="215.9178" y2="201.38297"/>
	<line class="st0" x1="222.97748" y1="188.5123" x2="222.97748" y2="201.38297"/>
	<line class="st0" x1="230.03716" y1="188.5123" x2="230.03716" y2="201.38297"/>
	<line class="st0" x1="237.09682" y1="188.5123" x2="237.09682" y2="201.38297"/>
	<line class="st0" x1="244.15649" y1="188.5123" x2="244.15649" y2="201.38297"/>
	<line class="st0" x1="251.21617" y1="188.5123" x2="251.21617" y2="201.38297"/>
	<line class="st0" x1="258.27585" y1="188.5123" x2="258.27585" y2="201.38297"/>
	<line class="st0" x1="272.65323" y1="72.79442" x2="183.91843" y2="72.79432"/>
	<line class="st0" x1="272.65323" y1="57.56525" x2="183.91843" y2="57.56358"/>
	<line class="st0" x1="272.65323" y1="62.99385" x2="183.91843" y2="62.99218"/>
	<line class="st0" x1="90.57138" y1="63.5712" x2="29.47068" y2="63.5712"/>
	<line class="st0" x1="265.33554" y1="57.56359" x2="265.33554" y2="72.79441"/>
	<line class="st0" x1="272.65323" y1="57.56359" x2="272.65323" y2="72.79441"/>
	<line class="st0" x1="187.67909" y1="57.56359" x2="187.67909" y2="72.79441"/>
	<line class="st0" x1="194.73877" y1="57.56359" x2="194.73877" y2="72.79441"/>
	<line class="st0" x1="201.79845" y1="57.56359" x2="201.79845" y2="72.79441"/>
	<line class="st0" x1="208.85812" y1="57.56359" x2="208.85812" y2="72.79441"/>
	<line class="st0" x1="215.9178" y1="57.56359" x2="215.9178" y2="72.79441"/>
	<line class="st0" x1="222.97748" y1="57.56359" x2="222.97748" y2="72.79441"/>
	<line class="st0" x1="230.03716" y1="57.56359" x2="230.03716" y2="72.79441"/>
	<line class="st0" x1="237.09682" y1="57.56359" x2="237.09682" y2="72.79441"/>
	<line class="st0" x1="244.15649" y1="57.56359" x2="244.15649" y2="72.79441"/>
	<line class="st0" x1="37.56223" y1="57.56411" x2="37.56223" y2="69.57829"/>
	<line class="st0" x1="45.04852" y1="57.5636" x2="45.04852" y2="69.57778"/>
	<line class="st0" x1="52.53481" y1="57.5636" x2="52.53481" y2="69.57778"/>
	<line class="st0" x1="60.0211" y1="57.5636" x2="60.0211" y2="69.57778"/>
	<line class="st0" x1="67.50739" y1="57.5636" x2="67.50739" y2="69.57778"/>
	<line class="st0" x1="74.99368" y1="57.5636" x2="74.99368" y2="69.57778"/>
	<line class="st0" x1="82.47997" y1="57.56411" x2="82.47997" y2="69.57829"/>
	<line class="st0" x1="251.21617" y1="57.56359" x2="251.21617" y2="72.79441"/>
	<line class="st0" x1="258.27585" y1="57.56359" x2="258.27585" y2="72.79441"/>
	<line class="st0" x1="272.65323" y1="169.29951" x2="260.51871" y2="169.29951"/>
	<line class="st0" x1="272.65323" y1="174.90977" x2="260.51871" y2="174.90977"/>
	<line class="st0" x1="268.60843" y1="132.4861" x2="268.60843" y2="155.91719"/>
	<line class="st0" x1="272.65323" y1="132.48605" x2="260.51871" y2="132.48605"/>
	<line class="st0" x1="272.65323" y1="138.09631" x2="260.51871" y2="138.09631"/>
	<line class="st0" x1="272.65323" y1="155.91714" x2="260.51871" y2="155.91714"/>
	<line class="st0" x1="100.38017" y1="75.97704" x2="100.38017" y2="236.82732"/>
	<line class="st0" x1="118.9192" y1="75.97704" x2="118.9192" y2="236.82732"/>
	<g>
		<line class="st0" x1="106.5599" y1="94.12794" x2="106.5599" y2="117.55903"/>
		<line class="st0" x1="112.73958" y1="94.12794" x2="112.73958" y2="117.55903"/>
		<line class="st0" x1="118.9192" y1="94.12789" x2="100.38017" y2="94.12789"/>
		<line class="st0" x1="118.9192" y1="99.73815" x2="100.38017" y2="99.73815"/>
		<line class="st0" x1="118.9192" y1="117.55898" x2="100.38017" y2="117.55898"/>
	</g>
	<g>
		<line class="st0" x1="106.5599" y1="201.38293" x2="106.5599" y2="224.81403"/>
		<line class="st0" x1="112.73958" y1="201.38293" x2="112.73958" y2="224.81403"/>
		<line class="st0" x1="118.9192" y1="201.38289" x2="100.38017" y2="201.38289"/>
		<line class="st0" x1="118.9192" y1="206.99315" x2="100.38017" y2="206.99315"/>
		<line class="st0" x1="118.9192" y1="224.81398" x2="100.38017" y2="224.81398"/>
	</g>
	<g>
		<line class="st0" x1="106.55991" y1="169.29958" x2="106.55991" y2="190.56079"/>
		<line class="st0" x1="112.73958" y1="169.29958" x2="112.73958" y2="190.56079"/>
		<line class="st0" x1="118.9192" y1="169.29951" x2="100.38017" y2="169.29951"/>
		<line class="st0" x1="118.9192" y1="174.90977" x2="100.38017" y2="174.90977"/>
		<line class="st0" x1="118.9192" y1="190.56079" x2="100.38017" y2="190.56079"/>
	</g>
	<g>
		<line class="st0" x1="106.5599" y1="132.4861" x2="106.5599" y2="155.91719"/>
		<line class="st0" x1="112.73958" y1="132.4861" x2="112.73958" y2="155.91719"/>
		<line class="st0" x1="118.9192" y1="132.48605" x2="100.38017" y2="132.48605"/>
		<line class="st0" x1="118.9192" y1="138.09631" x2="100.38017" y2="138.09631"/>
		<line class="st0" x1="118.9192" y1="155.91714" x2="100.38017" y2="155.91714"/>
	</g>
	<line class="st0" x1="130.36626" y1="75.97704" x2="130.36626" y2="236.82732"/>
	<line class="st0" x1="148.90529" y1="75.97704" x2="148.90529" y2="236.82732"/>
	<g>
		<line class="st0" x1="136.54599" y1="94.12794" x2="136.54599" y2="117.55903"/>
		<line class="st0" x1="142.72566" y1="94.12794" x2="142.72566" y2="117.55903"/>
		<line class="st0" x1="148.90529" y1="94.12789" x2="130.36626" y2="94.12789"/>
		<line class="st0" x1="148.90529" y1="99.73815" x2="130.36626" y2="99.73815"/>
		<line class="st0" x1="148.90529" y1="117.55898" x2="130.36626" y2="117.55898"/>
	</g>
	<g>
		<line class="st0" x1="136.54599" y1="201.38293" x2="136.54599" y2="224.81403"/>
		<line class="st0" x1="142.72566" y1="201.38293" x2="142.72566" y2="224.81403"/>
		<line class="st0" x1="148.90529" y1="201.38289" x2="130.36626" y2="201.38289"/>
		<line class="st0" x1="148.90529" y1="206.99315" x2="130.36626" y2="206.99315"/>
		<line class="st0" x1="148.90529" y1="224.81398" x2="130.36626" y2="224.81398"/>
	</g>
	<g>
		<line class="st0" x1="136.54599" y1="169.29958" x2="136.54599" y2="190.56079"/>
		<line class="st0" x1="142.72566" y1="169.29958" x2="142.72566" y2="190.56079"/>
		<line class="st0" x1="148.90529" y1="169.29951" x2="130.36626" y2="169.29951"/>
		<line class="st0" x1="148.90529" y1="174.90977" x2="130.36626" y2="174.90977"/>
		<line class="st0" x1="148.90529" y1="190.56079" x2="130.36626" y2="190.56079"/>
	</g>
	<g>
		<line class="st0" x1="136.54599" y1="132.4861" x2="136.54599" y2="155.91719"/>
		<line class="st0" x1="142.72566" y1="132.4861" x2="142.72566" y2="155.91719"/>
		<line class="st0" x1="148.90529" y1="132.48605" x2="130.36626" y2="132.48605"/>
		<line class="st0" x1="148.90529" y1="138.09631" x2="130.36626" y2="138.09631"/>
		<line class="st0" x1="148.90529" y1="155.91714" x2="130.36626" y2="155.91714"/>
	</g>
	<line class="st0" x1="158.26227" y1="75.97704" x2="158.26227" y2="236.82732"/>
	<line class="st0" x1="176.8013" y1="75.97704" x2="176.8013" y2="236.82732"/>
	<g>
		<line class="st0" x1="164.44199" y1="94.12794" x2="164.44199" y2="117.55903"/>
		<line class="st0" x1="170.62167" y1="94.12794" x2="170.62167" y2="117.55903"/>
		<line class="st0" x1="176.8013" y1="94.12789" x2="158.26227" y2="94.12789"/>
		<line class="st0" x1="176.8013" y1="99.73815" x2="158.26227" y2="99.73815"/>
		<line class="st0" x1="176.8013" y1="117.55898" x2="158.26227" y2="117.55898"/>
	</g>
	<g>
		<line class="st0" x1="164.44199" y1="201.38293" x2="164.44199" y2="224.81403"/>
		<line class="st0" x1="170.62167" y1="201.38293" x2="170.62167" y2="224.81403"/>
		<line class="st0" x1="176.8013" y1="201.38289" x2="158.26227" y2="201.38289"/>
		<line class="st0" x1="176.8013" y1="206.99315" x2="158.26227" y2="206.99315"/>
		<line class="st0" x1="176.8013" y1="224.81398" x2="158.26227" y2="224.81398"/>
	</g>
	<g>
		<line class="st0" x1="164.442" y1="169.29958" x2="164.442" y2="190.56079"/>
		<line class="st0" x1="170.62167" y1="169.29958" x2="170.62167" y2="190.56079"/>
		<line class="st0" x1="176.8013" y1="169.29951" x2="158.26227" y2="169.29951"/>
		<line class="st0" x1="176.8013" y1="174.90977" x2="158.26227" y2="174.90977"/>
		<line class="st0" x1="176.8013" y1="190.56079" x2="158.26227" y2="190.56079"/>
	</g>
	<g>
		<line class="st0" x1="164.44199" y1="132.4861" x2="164.44199" y2="155.91719"/>
		<line class="st0" x1="170.62167" y1="132.4861" x2="170.62167" y2="155.91719"/>
		<line class="st0" x1="176.8013" y1="132.48605" x2="158.26227" y2="132.48605"/>
		<line class="st0" x1="176.8013" y1="138.09631" x2="158.26227" y2="138.09631"/>
		<line class="st0" x1="176.8013" y1="155.91714" x2="158.26227" y2="155.91714"/>
	</g>
	<line class="st0" x1="66.30181" y1="75.97704" x2="66.30181" y2="236.82732"/>
	<line class="st0" x1="90.57083" y1="75.97704" x2="90.57083" y2="236.82732"/>
	<g>
		<line class="st0" x1="74.39155" y1="104.55223" x2="74.39155" y2="127.98331"/>
		<line class="st0" x1="82.48122" y1="104.55223" x2="82.48122" y2="127.98331"/>
		<line class="st0" x1="90.57083" y1="104.55218" x2="66.30181" y2="104.55218"/>
		<line class="st0" x1="90.57083" y1="110.16244" x2="66.30181" y2="110.16244"/>
		<line class="st0" x1="90.57083" y1="127.98327" x2="66.30181" y2="127.98327"/>
	</g>
	<line class="st0" x1="74.39155" y1="75.97704" x2="74.39155" y2="86.96865"/>
	<line class="st0" x1="82.47997" y1="75.97704" x2="82.47997" y2="86.96865"/>
	<line class="st0" x1="90.57083" y1="86.96861" x2="66.30181" y2="86.96861"/>
	<g>
		<line class="st0" x1="74.39155" y1="213.59346" x2="74.39155" y2="237.02455"/>
		<line class="st0" x1="82.48122" y1="213.59346" x2="82.48122" y2="237.02455"/>
		<line class="st0" x1="90.57083" y1="213.59341" x2="66.30181" y2="213.59341"/>
		<line class="st0" x1="90.57083" y1="219.20367" x2="66.30181" y2="219.20367"/>
		<line class="st0" x1="90.57083" y1="237.02451" x2="66.30181" y2="237.02451"/>
	</g>
	<g>
		<line class="st0" x1="74.39156" y1="179.93021" x2="74.39156" y2="201.19144"/>
		<line class="st0" x1="82.48122" y1="179.93021" x2="82.48122" y2="201.19144"/>
		<line class="st0" x1="90.57083" y1="179.93016" x2="66.30181" y2="179.93016"/>
		<line class="st0" x1="90.57083" y1="185.54042" x2="66.30181" y2="185.54042"/>
		<line class="st0" x1="90.57083" y1="201.19144" x2="66.30181" y2="201.19144"/>
	</g>
	<g>
		<line class="st0" x1="74.39155" y1="142.55112" x2="74.39155" y2="165.98219"/>
		<line class="st0" x1="82.48122" y1="142.55112" x2="82.48122" y2="165.98219"/>
		<line class="st0" x1="90.57083" y1="142.55106" x2="66.30181" y2="142.55106"/>
		<line class="st0" x1="90.57083" y1="148.16132" x2="66.30181" y2="148.16132"/>
		<line class="st0" x1="90.57083" y1="165.98215" x2="66.30181" y2="165.98215"/>
	</g>
	<line class="st0" x1="272.65323" y1="49.57658" x2="14.22993" y2="49.57581"/>
	<line class="st0" x1="272.65323" y1="43.74594" x2="19.94714" y2="43.74518"/>
	<line class="st0" x1="272.65323" y1="37.91531" x2="25.77776" y2="37.91455"/>
	<line class="st0" x1="272.65323" y1="32.08467" x2="31.60837" y2="32.08391"/>
	<line class="st0" x1="272.65323" y1="26.25404" x2="37.43899" y2="26.25328"/>
	<line class="st0" x1="272.65323" y1="20.42341" x2="43.26961" y2="20.42265"/>
	<line class="st0" x1="272.65323" y1="75.97842" x2="14.22993" y2="75.97704"/>
	<polyline class="st0" points="272.65323,14.26545 49.51911,14.17323 14.17323,49.51911 14.22993,262.76575 	"/>
	<rect x="29.47123" y="57.56452" class="st0" width="61.0996" height="12.01336"/>
	<line class="st0" x1="176.8013" y1="63.5712" x2="100.38017" y2="63.5712"/>
	<line class="st0" x1="109.64969" y1="57.5636" x2="109.64969" y2="69.57778"/>
	<line class="st0" x1="116.88495" y1="57.5636" x2="116.88495" y2="69.57778"/>
	<line class="st0" x1="124.12021" y1="57.5636" x2="124.12021" y2="69.57778"/>
	<line class="st0" x1="131.35547" y1="57.5636" x2="131.35547" y2="69.57778"/>
	<line class="st0" x1="138.59073" y1="57.5636" x2="138.59073" y2="69.57778"/>
	<line class="st0" x1="145.826" y1="57.5636" x2="145.826" y2="69.57778"/>
	<line class="st0" x1="153.06126" y1="57.5636" x2="153.06126" y2="69.57778"/>
	<line class="st0" x1="160.29652" y1="57.5636" x2="160.29652" y2="69.57778"/>
	<line class="st0" x1="167.53178" y1="57.5636" x2="167.53178" y2="69.57778"/>
	<rect x="100.38072" y="57.56452" class="st0" width="76.42058" height="12.01336"/>
	<g>
		<line class="st0" x1="109.65" y1="243.72679" x2="109.65" y2="257.53726"/>
		<line class="st0" x1="118.9192" y1="250.63248" x2="100.60506" y2="250.63248"/>
		<rect x="100.38049" y="243.72725" class="st0" width="18.53903" height="13.81047"/>
	</g>
	<g>
		<line class="st0" x1="167.53178" y1="243.72679" x2="167.53178" y2="257.53726"/>
		<line class="st0" x1="176.80098" y1="250.63248" x2="158.48685" y2="250.63248"/>
		<rect x="158.26227" y="243.72725" class="st0" width="18.53903" height="13.81047"/>
	</g>
	<g>
		<line class="st0" x1="196.15529" y1="243.72684" x2="196.15529" y2="257.52972"/>
		<line class="st0" x1="204.57112" y1="243.72684" x2="204.57112" y2="257.53729"/>
		<line class="st0" x1="212.98694" y1="250.63252" x2="187.96472" y2="250.63252"/>
		<rect x="187.73947" y="243.72691" class="st0" width="25.24815" height="13.81121"/>
	</g>
	<g>
		<line class="st0" x1="226.04022" y1="243.72684" x2="226.04022" y2="257.52972"/>
		<line class="st0" x1="233.17207" y1="243.72684" x2="233.17207" y2="257.53729"/>
		<line class="st0" x1="240.30394" y1="250.63252" x2="219.09924" y2="250.63252"/>
		<rect x="218.90836" y="243.72691" class="st0" width="21.39617" height="13.81121"/>
	</g>
	<g>
		<line class="st0" x1="139.63577" y1="243.72679" x2="139.63577" y2="257.53726"/>
		<line class="st0" x1="148.90498" y1="250.63248" x2="130.59084" y2="250.63248"/>
		<rect x="130.36626" y="243.72725" class="st0" width="18.53903" height="13.81047"/>
	</g>
	<path class="st0" d="M53.74025,257.57349H29.47123c0-8.79314,5.43281-15.92137,12.13451-15.92137
		S53.74025,248.78035,53.74025,257.57349z"/>
	<path class="st0" d="M196.43109,224.08096"/>
	<path class="st0" d="M196.43109,209.004"/>
	<line class="st0" x1="188.34132" y1="224.08095" x2="188.34132" y2="237.02515"/>
	<line class="st0" x1="212.61034" y1="224.08095" x2="212.61034" y2="230.55276"/>
	<line class="st0" x1="219.56476" y1="224.08095" x2="219.56476" y2="230.55276"/>
	<line class="st0" x1="243.83379" y1="224.08095" x2="243.83379" y2="230.55276"/>
	<line class="st0" x1="194.73866" y1="209.65958" x2="194.73866" y2="230.55278"/>
	<line class="st0" x1="195.27788" y1="230.55278" x2="195.27788" y2="237.02539"/>
	<line class="st0" x1="202.21443" y1="230.55278" x2="202.21443" y2="237.02539"/>
	<line class="st0" x1="209.151" y1="230.55278" x2="209.151" y2="237.02539"/>
	<line class="st0" x1="216.08755" y1="230.55278" x2="216.08755" y2="237.02539"/>
	<line class="st0" x1="223.02411" y1="230.55278" x2="223.02411" y2="237.02539"/>
	<line class="st0" x1="229.96066" y1="230.55278" x2="229.96066" y2="237.02539"/>
	<line class="st0" x1="236.89722" y1="230.55278" x2="236.89722" y2="237.02539"/>
	<line class="st0" x1="243.83379" y1="230.55278" x2="243.83379" y2="237.02539"/>
	<line class="st0" x1="200.36357" y1="208.15959" x2="200.36357" y2="230.55278"/>
	<line class="st0" x1="206.27908" y1="209.65958" x2="206.27908" y2="230.55278"/>
	<path class="st0" d="M204.52077,224.08096"/>
	<path class="st0" d="M204.52077,209.004"/>
	<line class="st0" x1="211.27393" y1="216.81415" x2="189.67773" y2="216.81415"/>
	<polyline class="st0" points="272.65323,247.67259 249.57806,247.67259 249.57806,252.69621 	"/>
	<polyline class="st0" points="272.65323,252.69621 246.73828,252.69621 246.73828,257.71985 	"/>
	<polyline class="st0" points="272.65323,257.71985 243.83379,257.71985 243.83379,262.43573 	"/>
	<path class="st0" d="M188.34132,224.08095c0-8.79314,5.4328-15.92139,12.13451-15.92139s12.13451,7.12825,12.13451,15.92139"/>
	<path class="st0" d="M219.56476,224.08095c0-8.79314,5.4328-15.92139,12.13451-15.92139s12.13452,7.12825,12.13452,15.92139"/>
	<path class="st0" d="M272.65323,206.30957c-11.15225,0-20.2164,7.95645-20.2164,17.77138v23.59164"/>
	<line class="st0" x1="74.39159" y1="242.49655" x2="74.39159" y2="257.57352"/>
	<line class="st0" x1="82.48126" y1="242.49655" x2="82.48126" y2="257.57352"/>
	<line class="st0" x1="89.23442" y1="250.30669" x2="67.63822" y2="250.30669"/>
	<path class="st0" d="M90.57083,257.57349H66.30181c0-8.79314,5.43281-15.92137,12.13451-15.92137
		C85.13802,241.65211,90.57083,248.78035,90.57083,257.57349z"/>
	<line class="st0" x1="361.44861" y1="49.57581" x2="361.44861" y2="236.82732"/>
	<line class="st0" x1="449.89273" y1="75.97704" x2="449.89273" y2="236.82732"/>
	<line class="st0" x1="515.83521" y1="75.97704" x2="515.83521" y2="236.82732"/>
	<line class="st0" x1="491.56619" y1="75.97704" x2="491.56619" y2="236.82732"/>
	<line class="st0" x1="272.65323" y1="262.43549" x2="531.07654" y2="262.43573"/>
	<line class="st0" x1="272.65323" y1="237.02576" x2="531.07654" y2="237.02455"/>
	<line class="st0" x1="272.65323" y1="201.38297" x2="361.38803" y2="201.38289"/>
	<line class="st0" x1="325.7417" y1="224.08101" x2="361.38803" y2="224.08092"/>
	<line class="st0" x1="292.86963" y1="224.08101" x2="301.47269" y2="224.08092"/>
	<line class="st0" x1="292.86963" y1="230.55281" x2="361.38803" y2="230.55273"/>
	<line class="st0" x1="272.65323" y1="84.8877" x2="361.38803" y2="84.88746"/>
	<line class="st0" x1="272.65323" y1="188.5137" x2="361.38803" y2="188.51228"/>
	<line class="st0" x1="507.74423" y1="94.12794" x2="507.74423" y2="117.55903"/>
	<line class="st0" x1="499.65582" y1="94.12794" x2="499.65582" y2="117.55903"/>
	<line class="st0" x1="491.56619" y1="94.12789" x2="515.83521" y2="94.12789"/>
	<line class="st0" x1="491.56619" y1="99.73815" x2="515.83521" y2="99.73815"/>
	<line class="st0" x1="491.56619" y1="117.55898" x2="515.83521" y2="117.55898"/>
	<line class="st0" x1="507.74548" y1="201.38293" x2="507.74548" y2="224.81403"/>
	<line class="st0" x1="499.65582" y1="201.38293" x2="499.65582" y2="224.81403"/>
	<line class="st0" x1="507.74545" y1="242.49655" x2="507.74545" y2="257.57352"/>
	<line class="st0" x1="499.65576" y1="242.49655" x2="499.65576" y2="257.57352"/>
	<line class="st0" x1="491.56619" y1="201.38289" x2="515.83521" y2="201.38289"/>
	<line class="st0" x1="491.56619" y1="206.99315" x2="515.83521" y2="206.99315"/>
	<line class="st0" x1="491.56619" y1="224.81398" x2="515.83521" y2="224.81398"/>
	<line class="st0" x1="492.90262" y1="250.30669" x2="514.49884" y2="250.30669"/>
	<g>
		<line class="st0" x1="507.74548" y1="169.29958" x2="507.74548" y2="190.56079"/>
		<line class="st0" x1="499.65582" y1="169.29958" x2="499.65582" y2="190.56079"/>
		<line class="st0" x1="491.56619" y1="169.29951" x2="515.83521" y2="169.29951"/>
		<line class="st0" x1="491.56619" y1="174.90977" x2="515.83521" y2="174.90977"/>
		<line class="st0" x1="491.56619" y1="190.56079" x2="515.83521" y2="190.56079"/>
	</g>
	<g>
		<line class="st0" x1="507.74548" y1="132.4861" x2="507.74548" y2="155.91719"/>
		<line class="st0" x1="499.65582" y1="132.4861" x2="499.65582" y2="155.91719"/>
		<line class="st0" x1="491.56619" y1="132.48605" x2="515.83521" y2="132.48605"/>
		<line class="st0" x1="491.56619" y1="138.09631" x2="515.83521" y2="138.09631"/>
		<line class="st0" x1="491.56619" y1="155.91714" x2="515.83521" y2="155.91714"/>
	</g>
	<g>
		<line class="st0" x1="355.20667" y1="84.8875" x2="355.20667" y2="188.51231"/>
		<line class="st0" x1="330.93765" y1="84.8875" x2="330.93765" y2="188.51231"/>
		<g>
			<line class="st0" x1="347.11697" y1="94.12794" x2="347.11697" y2="117.55903"/>
			<line class="st0" x1="339.02728" y1="94.12794" x2="339.02728" y2="117.55903"/>
			<line class="st0" x1="330.93768" y1="94.12789" x2="355.2067" y2="94.12789"/>
			<line class="st0" x1="330.93768" y1="99.73815" x2="355.2067" y2="99.73815"/>
			<line class="st0" x1="330.93768" y1="117.55898" x2="355.2067" y2="117.55898"/>
		</g>
		<line class="st0" x1="347.11694" y1="169.29958" x2="347.11694" y2="188.5123"/>
		<line class="st0" x1="339.02728" y1="169.29958" x2="339.02728" y2="188.5123"/>
		<line class="st0" x1="330.93768" y1="169.29951" x2="355.2067" y2="169.29951"/>
		<line class="st0" x1="330.93768" y1="174.90977" x2="355.2067" y2="174.90977"/>
		<g>
			<line class="st0" x1="347.11697" y1="132.4861" x2="347.11697" y2="155.91719"/>
			<line class="st0" x1="339.02728" y1="132.4861" x2="339.02728" y2="155.91719"/>
			<line class="st0" x1="330.93768" y1="132.48605" x2="355.2067" y2="132.48605"/>
			<line class="st0" x1="330.93768" y1="138.09631" x2="355.2067" y2="138.09631"/>
			<line class="st0" x1="330.93768" y1="155.91714" x2="355.2067" y2="155.91714"/>
		</g>
	</g>
	<g>
		<line class="st0" x1="319.99741" y1="84.8875" x2="319.99741" y2="188.51231"/>
		<line class="st0" x1="295.72839" y1="84.8875" x2="295.72839" y2="188.51231"/>
		<g>
			<line class="st0" x1="311.90768" y1="94.12794" x2="311.90768" y2="117.55903"/>
			<line class="st0" x1="303.81802" y1="94.12794" x2="303.81802" y2="117.55903"/>
			<line class="st0" x1="295.72842" y1="94.12789" x2="319.99744" y2="94.12789"/>
			<line class="st0" x1="295.72842" y1="99.73815" x2="319.99744" y2="99.73815"/>
			<line class="st0" x1="295.72842" y1="117.55898" x2="319.99744" y2="117.55898"/>
		</g>
		<line class="st0" x1="311.90768" y1="169.29958" x2="311.90768" y2="188.5123"/>
		<line class="st0" x1="303.81799" y1="169.29958" x2="303.81799" y2="188.5123"/>
		<line class="st0" x1="295.72842" y1="169.29951" x2="319.99744" y2="169.29951"/>
		<line class="st0" x1="295.72842" y1="174.90977" x2="319.99744" y2="174.90977"/>
		<g>
			<line class="st0" x1="311.90768" y1="132.4861" x2="311.90768" y2="155.91719"/>
			<line class="st0" x1="303.81802" y1="132.4861" x2="303.81802" y2="155.91719"/>
			<line class="st0" x1="295.72842" y1="132.48605" x2="319.99744" y2="132.48605"/>
			<line class="st0" x1="295.72842" y1="138.09631" x2="319.99744" y2="138.09631"/>
			<line class="st0" x1="295.72842" y1="155.91714" x2="319.99744" y2="155.91714"/>
		</g>
	</g>
	<line class="st0" x1="284.78772" y1="84.8875" x2="284.78772" y2="188.51231"/>
	<line class="st0" x1="276.69803" y1="94.12794" x2="276.69803" y2="117.55903"/>
	<line class="st0" x1="272.65323" y1="94.12789" x2="284.78775" y2="94.12789"/>
	<line class="st0" x1="272.65323" y1="99.73815" x2="284.78775" y2="99.73815"/>
	<line class="st0" x1="272.65323" y1="117.55898" x2="284.78775" y2="117.55898"/>
	<line class="st0" x1="276.698" y1="169.29958" x2="276.698" y2="188.5123"/>
	<line class="st0" x1="279.97092" y1="188.5123" x2="279.97092" y2="201.38297"/>
	<line class="st0" x1="357.62738" y1="188.5123" x2="357.62738" y2="201.38297"/>
	<line class="st0" x1="350.56769" y1="188.5123" x2="350.56769" y2="201.38297"/>
	<line class="st0" x1="343.50803" y1="188.5123" x2="343.50803" y2="201.38297"/>
	<line class="st0" x1="336.44833" y1="188.5123" x2="336.44833" y2="201.38297"/>
	<line class="st0" x1="329.38867" y1="188.5123" x2="329.38867" y2="201.38297"/>
	<line class="st0" x1="322.32898" y1="188.5123" x2="322.32898" y2="201.38297"/>
	<line class="st0" x1="315.26932" y1="188.5123" x2="315.26932" y2="201.38297"/>
	<line class="st0" x1="308.20963" y1="188.5123" x2="308.20963" y2="201.38297"/>
	<line class="st0" x1="301.14996" y1="188.5123" x2="301.14996" y2="201.38297"/>
	<line class="st0" x1="294.09027" y1="188.5123" x2="294.09027" y2="201.38297"/>
	<line class="st0" x1="287.03061" y1="188.5123" x2="287.03061" y2="201.38297"/>
	<line class="st0" x1="272.65323" y1="72.79442" x2="361.38803" y2="72.79432"/>
	<line class="st0" x1="272.65323" y1="57.56525" x2="361.38803" y2="57.56358"/>
	<line class="st0" x1="272.65323" y1="62.99385" x2="361.38803" y2="62.99218"/>
	<line class="st0" x1="454.73508" y1="63.5712" x2="515.83575" y2="63.5712"/>
	<line class="st0" x1="279.97092" y1="57.56359" x2="279.97092" y2="72.79441"/>
	<line class="st0" x1="357.62738" y1="57.56359" x2="357.62738" y2="72.79441"/>
	<line class="st0" x1="350.56769" y1="57.56359" x2="350.56769" y2="72.79441"/>
	<line class="st0" x1="343.50803" y1="57.56359" x2="343.50803" y2="72.79441"/>
	<line class="st0" x1="336.44833" y1="57.56359" x2="336.44833" y2="72.79441"/>
	<line class="st0" x1="329.38867" y1="57.56359" x2="329.38867" y2="72.79441"/>
	<line class="st0" x1="322.32898" y1="57.56359" x2="322.32898" y2="72.79441"/>
	<line class="st0" x1="315.26932" y1="57.56359" x2="315.26932" y2="72.79441"/>
	<line class="st0" x1="308.20963" y1="57.56359" x2="308.20963" y2="72.79441"/>
	<line class="st0" x1="301.14996" y1="57.56359" x2="301.14996" y2="72.79441"/>
	<line class="st0" x1="507.74423" y1="57.56411" x2="507.74423" y2="69.57829"/>
	<line class="st0" x1="500.25793" y1="57.5636" x2="500.25793" y2="69.57778"/>
	<line class="st0" x1="492.77164" y1="57.5636" x2="492.77164" y2="69.57778"/>
	<line class="st0" x1="485.28537" y1="57.5636" x2="485.28537" y2="69.57778"/>
	<line class="st0" x1="477.79907" y1="57.5636" x2="477.79907" y2="69.57778"/>
	<line class="st0" x1="470.31277" y1="57.5636" x2="470.31277" y2="69.57778"/>
	<line class="st0" x1="462.82651" y1="57.56411" x2="462.82651" y2="69.57829"/>
	<line class="st0" x1="294.09027" y1="57.56359" x2="294.09027" y2="72.79441"/>
	<line class="st0" x1="287.03061" y1="57.56359" x2="287.03061" y2="72.79441"/>
	<line class="st0" x1="272.65323" y1="169.29951" x2="284.78775" y2="169.29951"/>
	<line class="st0" x1="272.65323" y1="174.90977" x2="284.78775" y2="174.90977"/>
	<line class="st0" x1="276.69803" y1="132.4861" x2="276.69803" y2="155.91719"/>
	<line class="st0" x1="272.65323" y1="132.48605" x2="284.78775" y2="132.48605"/>
	<line class="st0" x1="272.65323" y1="138.09631" x2="284.78775" y2="138.09631"/>
	<line class="st0" x1="272.65323" y1="155.91714" x2="284.78775" y2="155.91714"/>
	<line class="st0" x1="444.92627" y1="75.97704" x2="444.92627" y2="236.82732"/>
	<line class="st0" x1="426.38724" y1="75.97704" x2="426.38724" y2="236.82732"/>
	<g>
		<line class="st0" x1="438.74655" y1="94.12794" x2="438.74655" y2="117.55903"/>
		<line class="st0" x1="432.56689" y1="94.12794" x2="432.56689" y2="117.55903"/>
		<line class="st0" x1="426.38724" y1="94.12789" x2="444.92627" y2="94.12789"/>
		<line class="st0" x1="426.38724" y1="99.73815" x2="444.92627" y2="99.73815"/>
		<line class="st0" x1="426.38724" y1="117.55898" x2="444.92627" y2="117.55898"/>
	</g>
	<g>
		<line class="st0" x1="438.74655" y1="201.38293" x2="438.74655" y2="224.81403"/>
		<line class="st0" x1="432.56689" y1="201.38293" x2="432.56689" y2="224.81403"/>
		<line class="st0" x1="426.38724" y1="201.38289" x2="444.92627" y2="201.38289"/>
		<line class="st0" x1="426.38724" y1="206.99315" x2="444.92627" y2="206.99315"/>
		<line class="st0" x1="426.38724" y1="224.81398" x2="444.92627" y2="224.81398"/>
	</g>
	<g>
		<line class="st0" x1="438.74655" y1="169.29958" x2="438.74655" y2="190.56079"/>
		<line class="st0" x1="432.56686" y1="169.29958" x2="432.56686" y2="190.56079"/>
		<line class="st0" x1="426.38724" y1="169.29951" x2="444.92627" y2="169.29951"/>
		<line class="st0" x1="426.38724" y1="174.90977" x2="444.92627" y2="174.90977"/>
		<line class="st0" x1="426.38724" y1="190.56079" x2="444.92627" y2="190.56079"/>
	</g>
	<g>
		<line class="st0" x1="438.74655" y1="132.4861" x2="438.74655" y2="155.91719"/>
		<line class="st0" x1="432.56689" y1="132.4861" x2="432.56689" y2="155.91719"/>
		<line class="st0" x1="426.38724" y1="132.48605" x2="444.92627" y2="132.48605"/>
		<line class="st0" x1="426.38724" y1="138.09631" x2="444.92627" y2="138.09631"/>
		<line class="st0" x1="426.38724" y1="155.91714" x2="444.92627" y2="155.91714"/>
	</g>
	<line class="st0" x1="414.94019" y1="75.97704" x2="414.94019" y2="236.82732"/>
	<line class="st0" x1="396.40115" y1="75.97704" x2="396.40115" y2="236.82732"/>
	<g>
		<line class="st0" x1="408.76047" y1="94.12794" x2="408.76047" y2="117.55903"/>
		<line class="st0" x1="402.58078" y1="94.12794" x2="402.58078" y2="117.55903"/>
		<line class="st0" x1="396.40115" y1="94.12789" x2="414.94019" y2="94.12789"/>
		<line class="st0" x1="396.40115" y1="99.73815" x2="414.94019" y2="99.73815"/>
		<line class="st0" x1="396.40115" y1="117.55898" x2="414.94019" y2="117.55898"/>
	</g>
	<g>
		<line class="st0" x1="408.76047" y1="201.38293" x2="408.76047" y2="224.81403"/>
		<line class="st0" x1="402.58078" y1="201.38293" x2="402.58078" y2="224.81403"/>
		<line class="st0" x1="396.40115" y1="201.38289" x2="414.94019" y2="201.38289"/>
		<line class="st0" x1="396.40115" y1="206.99315" x2="414.94019" y2="206.99315"/>
		<line class="st0" x1="396.40115" y1="224.81398" x2="414.94019" y2="224.81398"/>
	</g>
	<g>
		<line class="st0" x1="408.76047" y1="169.29958" x2="408.76047" y2="190.56079"/>
		<line class="st0" x1="402.58078" y1="169.29958" x2="402.58078" y2="190.56079"/>
		<line class="st0" x1="396.40115" y1="169.29951" x2="414.94019" y2="169.29951"/>
		<line class="st0" x1="396.40115" y1="174.90977" x2="414.94019" y2="174.90977"/>
		<line class="st0" x1="396.40115" y1="190.56079" x2="414.94019" y2="190.56079"/>
	</g>
	<g>
		<line class="st0" x1="408.76047" y1="132.4861" x2="408.76047" y2="155.91719"/>
		<line class="st0" x1="402.58078" y1="132.4861" x2="402.58078" y2="155.91719"/>
		<line class="st0" x1="396.40115" y1="132.48605" x2="414.94019" y2="132.48605"/>
		<line class="st0" x1="396.40115" y1="138.09631" x2="414.94019" y2="138.09631"/>
		<line class="st0" x1="396.40115" y1="155.91714" x2="414.94019" y2="155.91714"/>
	</g>
	<line class="st0" x1="387.04419" y1="75.97704" x2="387.04419" y2="236.82732"/>
	<line class="st0" x1="368.50516" y1="75.97704" x2="368.50516" y2="236.82732"/>
	<g>
		<line class="st0" x1="380.86447" y1="94.12794" x2="380.86447" y2="117.55903"/>
		<line class="st0" x1="374.68478" y1="94.12794" x2="374.68478" y2="117.55903"/>
		<line class="st0" x1="368.50516" y1="94.12789" x2="387.04419" y2="94.12789"/>
		<line class="st0" x1="368.50516" y1="99.73815" x2="387.04419" y2="99.73815"/>
		<line class="st0" x1="368.50516" y1="117.55898" x2="387.04419" y2="117.55898"/>
	</g>
	<g>
		<line class="st0" x1="380.86447" y1="201.38293" x2="380.86447" y2="224.81403"/>
		<line class="st0" x1="374.68478" y1="201.38293" x2="374.68478" y2="224.81403"/>
		<line class="st0" x1="368.50516" y1="201.38289" x2="387.04419" y2="201.38289"/>
		<line class="st0" x1="368.50516" y1="206.99315" x2="387.04419" y2="206.99315"/>
		<line class="st0" x1="368.50516" y1="224.81398" x2="387.04419" y2="224.81398"/>
	</g>
	<g>
		<line class="st0" x1="380.86447" y1="169.29958" x2="380.86447" y2="190.56079"/>
		<line class="st0" x1="374.68478" y1="169.29958" x2="374.68478" y2="190.56079"/>
		<line class="st0" x1="368.50516" y1="169.29951" x2="387.04419" y2="169.29951"/>
		<line class="st0" x1="368.50516" y1="174.90977" x2="387.04419" y2="174.90977"/>
		<line class="st0" x1="368.50516" y1="190.56079" x2="387.04419" y2="190.56079"/>
	</g>
	<g>
		<line class="st0" x1="380.86447" y1="132.4861" x2="380.86447" y2="155.91719"/>
		<line class="st0" x1="374.68478" y1="132.4861" x2="374.68478" y2="155.91719"/>
		<line class="st0" x1="368.50516" y1="132.48605" x2="387.04419" y2="132.48605"/>
		<line class="st0" x1="368.50516" y1="138.09631" x2="387.04419" y2="138.09631"/>
		<line class="st0" x1="368.50516" y1="155.91714" x2="387.04419" y2="155.91714"/>
	</g>
	<line class="st0" x1="479.00464" y1="75.97704" x2="479.00464" y2="236.82732"/>
	<line class="st0" x1="454.73563" y1="75.97704" x2="454.73563" y2="236.82732"/>
	<g>
		<line class="st0" x1="470.91492" y1="104.55223" x2="470.91492" y2="127.98331"/>
		<line class="st0" x1="462.82523" y1="104.55223" x2="462.82523" y2="127.98331"/>
		<line class="st0" x1="454.73563" y1="104.55218" x2="479.00464" y2="104.55218"/>
		<line class="st0" x1="454.73563" y1="110.16244" x2="479.00464" y2="110.16244"/>
		<line class="st0" x1="454.73563" y1="127.98327" x2="479.00464" y2="127.98327"/>
	</g>
	<line class="st0" x1="470.91492" y1="75.97704" x2="470.91492" y2="86.96865"/>
	<line class="st0" x1="462.82651" y1="75.97704" x2="462.82651" y2="86.96865"/>
	<line class="st0" x1="454.73563" y1="86.96861" x2="479.00464" y2="86.96861"/>
	<g>
		<line class="st0" x1="470.91492" y1="213.59346" x2="470.91492" y2="237.02455"/>
		<line class="st0" x1="462.82523" y1="213.59346" x2="462.82523" y2="237.02455"/>
		<line class="st0" x1="454.73563" y1="213.59341" x2="479.00464" y2="213.59341"/>
		<line class="st0" x1="454.73563" y1="219.20367" x2="479.00464" y2="219.20367"/>
		<line class="st0" x1="454.73563" y1="237.02451" x2="479.00464" y2="237.02451"/>
	</g>
	<g>
		<line class="st0" x1="470.91492" y1="179.93021" x2="470.91492" y2="201.19144"/>
		<line class="st0" x1="462.82523" y1="179.93021" x2="462.82523" y2="201.19144"/>
		<line class="st0" x1="454.73563" y1="179.93016" x2="479.00464" y2="179.93016"/>
		<line class="st0" x1="454.73563" y1="185.54042" x2="479.00464" y2="185.54042"/>
		<line class="st0" x1="454.73563" y1="201.19144" x2="479.00464" y2="201.19144"/>
	</g>
	<g>
		<line class="st0" x1="470.91492" y1="142.55112" x2="470.91492" y2="165.98219"/>
		<line class="st0" x1="462.82523" y1="142.55112" x2="462.82523" y2="165.98219"/>
		<line class="st0" x1="454.73563" y1="142.55106" x2="479.00464" y2="142.55106"/>
		<line class="st0" x1="454.73563" y1="148.16132" x2="479.00464" y2="148.16132"/>
		<line class="st0" x1="454.73563" y1="165.98215" x2="479.00464" y2="165.98215"/>
	</g>
	<line class="st0" x1="272.65323" y1="49.57658" x2="531.07654" y2="49.57581"/>
	<line class="st0" x1="272.65323" y1="43.74594" x2="525.35931" y2="43.74518"/>
	<line class="st0" x1="272.65323" y1="37.91531" x2="519.52869" y2="37.91455"/>
	<line class="st0" x1="272.65323" y1="32.08467" x2="513.69806" y2="32.08391"/>
	<line class="st0" x1="272.65323" y1="26.25404" x2="507.86746" y2="26.25328"/>
	<line class="st0" x1="272.65323" y1="20.42341" x2="502.03687" y2="20.42265"/>
	<line class="st0" x1="272.65323" y1="75.97842" x2="531.07654" y2="75.97704"/>
	<polyline class="st0" points="272.65323,14.26545 495.78735,14.17323 531.13324,49.51911 531.07654,262.76575 	"/>
	
		<rect x="454.73563" y="57.56452" transform="matrix(-1 -4.489443e-11 4.489443e-11 -1 970.57086 127.1424)" class="st0" width="61.0996" height="12.01336"/>
	<line class="st0" x1="368.50516" y1="63.5712" x2="444.92627" y2="63.5712"/>
	<line class="st0" x1="435.65677" y1="57.5636" x2="435.65677" y2="69.57778"/>
	<line class="st0" x1="428.42151" y1="57.5636" x2="428.42151" y2="69.57778"/>
	<line class="st0" x1="421.18625" y1="57.5636" x2="421.18625" y2="69.57778"/>
	<line class="st0" x1="413.95099" y1="57.5636" x2="413.95099" y2="69.57778"/>
	<line class="st0" x1="406.71573" y1="57.5636" x2="406.71573" y2="69.57778"/>
	<line class="st0" x1="399.48047" y1="57.5636" x2="399.48047" y2="69.57778"/>
	<line class="st0" x1="392.24521" y1="57.5636" x2="392.24521" y2="69.57778"/>
	<line class="st0" x1="385.00995" y1="57.5636" x2="385.00995" y2="69.57778"/>
	<line class="st0" x1="377.77469" y1="57.5636" x2="377.77469" y2="69.57778"/>
	
		<rect x="368.50516" y="57.56452" transform="matrix(-1 -4.489132e-11 4.489132e-11 -1 813.43091 127.1424)" class="st0" width="76.42058" height="12.01336"/>
	<g>
		<line class="st0" x1="435.65646" y1="243.72679" x2="435.65646" y2="257.53726"/>
		<line class="st0" x1="426.38724" y1="250.63248" x2="444.70139" y2="250.63248"/>
		
			<rect x="426.38693" y="243.72725" transform="matrix(-1 -4.493751e-11 4.493751e-11 -1 871.31293 501.26495)" class="st0" width="18.53903" height="13.81047"/>
	</g>
	<g>
		<line class="st0" x1="377.77469" y1="243.72679" x2="377.77469" y2="257.53726"/>
		<line class="st0" x1="368.50546" y1="250.63248" x2="386.81961" y2="250.63248"/>
		
			<rect x="368.50516" y="243.72725" transform="matrix(-1 -4.483936e-11 4.483936e-11 -1 755.54938 501.26495)" class="st0" width="18.53903" height="13.81047"/>
	</g>
	<g>
		<line class="st0" x1="349.15115" y1="243.72684" x2="349.15115" y2="257.52972"/>
		<line class="st0" x1="340.73535" y1="243.72684" x2="340.73535" y2="257.53729"/>
		<line class="st0" x1="332.31952" y1="250.63252" x2="357.34174" y2="250.63252"/>
		
			<rect x="332.31885" y="243.72691" transform="matrix(-1 -4.495572e-11 4.495572e-11 -1 689.8858 501.26505)" class="st0" width="25.24815" height="13.81121"/>
	</g>
	<g>
		<line class="st0" x1="319.26624" y1="243.72684" x2="319.26624" y2="257.52972"/>
		<line class="st0" x1="312.13437" y1="243.72684" x2="312.13437" y2="257.53729"/>
		<line class="st0" x1="305.0025" y1="250.63252" x2="326.20721" y2="250.63252"/>
		
			<rect x="305.00192" y="243.72691" transform="matrix(-1 -4.488777e-11 4.488777e-11 -1 631.40002 501.26505)" class="st0" width="21.39617" height="13.81121"/>
	</g>
	<g>
		<line class="st0" x1="405.67068" y1="243.72679" x2="405.67068" y2="257.53726"/>
		<line class="st0" x1="396.40149" y1="250.63248" x2="414.71561" y2="250.63248"/>
		
			<rect x="396.40115" y="243.72725" transform="matrix(-1 -4.493751e-11 4.493751e-11 -1 811.34137 501.26495)" class="st0" width="18.53903" height="13.81047"/>
	</g>
	<path class="st0" d="M491.56619,257.57349h24.26901c0-8.79314-5.43277-15.92137-12.13449-15.92137
		C496.99902,241.65211,491.56619,248.78035,491.56619,257.57349z"/>
	<path class="st0" d="M348.87537,224.08096"/>
	<path class="st0" d="M348.87537,209.004"/>
	<line class="st0" x1="356.96515" y1="224.08095" x2="356.96515" y2="237.02515"/>
	<line class="st0" x1="332.69611" y1="224.08095" x2="332.69611" y2="230.55276"/>
	<line class="st0" x1="325.7417" y1="224.08095" x2="325.7417" y2="230.55276"/>
	<line class="st0" x1="301.47269" y1="224.08095" x2="301.47269" y2="230.55276"/>
	<line class="st0" x1="350.56778" y1="209.65958" x2="350.56778" y2="230.55278"/>
	<line class="st0" x1="350.02856" y1="230.55278" x2="350.02856" y2="237.02539"/>
	<line class="st0" x1="343.09201" y1="230.55278" x2="343.09201" y2="237.02539"/>
	<line class="st0" x1="336.15546" y1="230.55278" x2="336.15546" y2="237.02539"/>
	<line class="st0" x1="329.2189" y1="230.55278" x2="329.2189" y2="237.02539"/>
	<line class="st0" x1="322.28235" y1="230.55278" x2="322.28235" y2="237.02539"/>
	<line class="st0" x1="315.34579" y1="230.55278" x2="315.34579" y2="237.02539"/>
	<line class="st0" x1="308.40924" y1="230.55278" x2="308.40924" y2="237.02539"/>
	<line class="st0" x1="301.47269" y1="230.55278" x2="301.47269" y2="237.02539"/>
	<line class="st0" x1="344.9429" y1="208.15959" x2="344.9429" y2="230.55278"/>
	<line class="st0" x1="339.02737" y1="209.65958" x2="339.02737" y2="230.55278"/>
	<path class="st0" d="M340.78568,224.08096"/>
	<path class="st0" d="M340.78568,209.004"/>
	<line class="st0" x1="334.03253" y1="216.81415" x2="355.62872" y2="216.81415"/>
	<polyline class="st0" points="272.65323,247.67259 295.72839,247.67259 295.72839,252.69621 	"/>
	<polyline class="st0" points="272.65323,252.69621 298.56818,252.69621 298.56818,257.71985 	"/>
	<polyline class="st0" points="272.65323,257.71985 301.47269,257.71985 301.47269,262.43573 	"/>
	<path class="st0" d="M356.96515,224.08095c0-8.79314-5.43283-15.92139-12.13452-15.92139
		c-6.70172,0-12.13452,7.12825-12.13452,15.92139"/>
	<path class="st0" d="M325.7417,224.08095c0-8.79314-5.4328-15.92139-12.13452-15.92139
		c-6.70169,0-12.13449,7.12825-12.13449,15.92139"/>
	<path class="st0" d="M272.65323,206.30957c11.15225,0,20.2164,7.95645,20.2164,17.77138v23.59164"/>
	<line class="st0" x1="470.91486" y1="242.49655" x2="470.91486" y2="257.57352"/>
	<line class="st0" x1="462.8252" y1="242.49655" x2="462.8252" y2="257.57352"/>
	<line class="st0" x1="456.07205" y1="250.30669" x2="477.66824" y2="250.30669"/>
	<path class="st0" d="M454.73563,257.57349h24.26901c0-8.79314-5.4328-15.92137-12.13449-15.92137
		C460.16843,241.65211,454.73563,248.78035,454.73563,257.57349z"/>
	<line class="st1" x1="301.19788" y1="-499.65469" x2="301.19788" y2="-312.40292"/>
	<line class="st1" x1="212.75362" y1="-473.25345" x2="212.75362" y2="-312.40292"/>
	<line class="st1" x1="146.81104" y1="-473.25345" x2="146.81104" y2="-312.40292"/>
	<line class="st1" x1="171.08009" y1="-473.25345" x2="171.08009" y2="-312.40292"/>
	<line class="st1" x1="389.99338" y1="-286.79474" x2="131.56972" y2="-286.79449"/>
	<line class="st1" x1="389.99338" y1="-312.2045" x2="131.56972" y2="-312.20569"/>
	<line class="st1" x1="389.99338" y1="-347.84732" x2="301.25845" y2="-347.84741"/>
	<line class="st1" x1="336.90485" y1="-325.14926" x2="301.25845" y2="-325.14935"/>
	<line class="st1" x1="369.77695" y1="-325.14926" x2="361.17389" y2="-325.14935"/>
	<line class="st1" x1="369.77695" y1="-318.67743" x2="301.25845" y2="-318.67752"/>
	<line class="st1" x1="389.99338" y1="-464.34277" x2="301.25845" y2="-464.34302"/>
	<line class="st1" x1="389.99338" y1="-360.71661" x2="301.25845" y2="-360.71802"/>
	<line class="st1" x1="154.90205" y1="-455.10251" x2="154.90205" y2="-431.67139"/>
	<line class="st1" x1="162.99046" y1="-455.10251" x2="162.99046" y2="-431.67139"/>
	<line class="st1" x1="171.08009" y1="-455.10257" x2="146.81104" y2="-455.10257"/>
	<line class="st1" x1="171.08009" y1="-449.49231" x2="146.81104" y2="-449.49231"/>
	<line class="st1" x1="171.08009" y1="-431.67145" x2="146.81104" y2="-431.67145"/>
	<line class="st1" x1="154.90079" y1="-347.84735" x2="154.90079" y2="-324.41623"/>
	<line class="st1" x1="162.99046" y1="-347.84735" x2="162.99046" y2="-324.41623"/>
	<line class="st1" x1="154.90082" y1="-306.7337" x2="154.90082" y2="-291.65671"/>
	<line class="st1" x1="162.99051" y1="-306.7337" x2="162.99051" y2="-291.65671"/>
	<line class="st1" x1="171.08009" y1="-347.84741" x2="146.81104" y2="-347.84741"/>
	<line class="st1" x1="171.08009" y1="-342.23715" x2="146.81104" y2="-342.23715"/>
	<line class="st1" x1="171.08009" y1="-324.41629" x2="146.81104" y2="-324.41629"/>
	<line class="st1" x1="169.74367" y1="-298.92355" x2="148.14745" y2="-298.92355"/>
	<g>
		<line class="st1" x1="154.90079" y1="-379.93079" x2="154.90079" y2="-358.66953"/>
		<line class="st1" x1="162.99048" y1="-379.93079" x2="162.99048" y2="-358.66953"/>
		<line class="st1" x1="171.08009" y1="-379.93085" x2="146.81104" y2="-379.93085"/>
		<line class="st1" x1="171.08009" y1="-374.32056" x2="146.81104" y2="-374.32056"/>
		<line class="st1" x1="171.08009" y1="-358.66953" x2="146.81104" y2="-358.66953"/>
	</g>
	<g>
		<line class="st1" x1="154.90079" y1="-416.74429" x2="154.90079" y2="-393.31317"/>
		<line class="st1" x1="162.99046" y1="-416.74429" x2="162.99046" y2="-393.31317"/>
		<line class="st1" x1="171.08009" y1="-416.74435" x2="146.81104" y2="-416.74435"/>
		<line class="st1" x1="171.08009" y1="-411.13406" x2="146.81104" y2="-411.13406"/>
		<line class="st1" x1="171.08009" y1="-393.31323" x2="146.81104" y2="-393.31323"/>
	</g>
	<g>
		<line class="st1" x1="307.43982" y1="-464.34296" x2="307.43982" y2="-360.71799"/>
		<line class="st1" x1="331.70886" y1="-464.34296" x2="331.70886" y2="-360.71799"/>
		<g>
			<line class="st1" x1="315.52954" y1="-455.10251" x2="315.52954" y2="-431.67139"/>
			<line class="st1" x1="323.61923" y1="-455.10251" x2="323.61923" y2="-431.67139"/>
			<line class="st1" x1="331.70886" y1="-455.10257" x2="307.43979" y2="-455.10257"/>
			<line class="st1" x1="331.70886" y1="-449.49231" x2="307.43979" y2="-449.49231"/>
			<line class="st1" x1="331.70886" y1="-431.67145" x2="307.43979" y2="-431.67145"/>
		</g>
		<line class="st1" x1="315.52954" y1="-379.93076" x2="315.52954" y2="-360.71802"/>
		<line class="st1" x1="323.61923" y1="-379.93076" x2="323.61923" y2="-360.71802"/>
		<line class="st1" x1="331.70886" y1="-379.93085" x2="307.43979" y2="-379.93085"/>
		<line class="st1" x1="331.70886" y1="-374.32056" x2="307.43979" y2="-374.32056"/>
		<g>
			<line class="st1" x1="315.52954" y1="-416.74429" x2="315.52954" y2="-393.31317"/>
			<line class="st1" x1="323.61923" y1="-416.74429" x2="323.61923" y2="-393.31317"/>
			<line class="st1" x1="331.70886" y1="-416.74435" x2="307.43979" y2="-416.74435"/>
			<line class="st1" x1="331.70886" y1="-411.13406" x2="307.43979" y2="-411.13406"/>
			<line class="st1" x1="331.70886" y1="-393.31323" x2="307.43979" y2="-393.31323"/>
		</g>
	</g>
	<g>
		<line class="st1" x1="342.64914" y1="-464.34296" x2="342.64914" y2="-360.71799"/>
		<line class="st1" x1="366.91818" y1="-464.34296" x2="366.91818" y2="-360.71799"/>
		<g>
			<line class="st1" x1="350.73886" y1="-455.10251" x2="350.73886" y2="-431.67139"/>
			<line class="st1" x1="358.82855" y1="-455.10251" x2="358.82855" y2="-431.67139"/>
			<line class="st1" x1="366.91818" y1="-455.10257" x2="342.64911" y2="-455.10257"/>
			<line class="st1" x1="366.91818" y1="-449.49231" x2="342.64911" y2="-449.49231"/>
			<line class="st1" x1="366.91818" y1="-431.67145" x2="342.64911" y2="-431.67145"/>
		</g>
		<line class="st1" x1="350.73889" y1="-379.93076" x2="350.73889" y2="-360.71802"/>
		<line class="st1" x1="358.82855" y1="-379.93076" x2="358.82855" y2="-360.71802"/>
		<line class="st1" x1="366.91818" y1="-379.93085" x2="342.64911" y2="-379.93085"/>
		<line class="st1" x1="366.91818" y1="-374.32056" x2="342.64911" y2="-374.32056"/>
		<g>
			<line class="st1" x1="350.73886" y1="-416.74429" x2="350.73886" y2="-393.31317"/>
			<line class="st1" x1="358.82855" y1="-416.74429" x2="358.82855" y2="-393.31317"/>
			<line class="st1" x1="366.91818" y1="-416.74435" x2="342.64911" y2="-416.74435"/>
			<line class="st1" x1="366.91818" y1="-411.13406" x2="342.64911" y2="-411.13406"/>
			<line class="st1" x1="366.91818" y1="-393.31323" x2="342.64911" y2="-393.31323"/>
		</g>
	</g>
	<line class="st1" x1="377.85886" y1="-464.34296" x2="377.85886" y2="-360.71799"/>
	<line class="st1" x1="385.94858" y1="-455.10251" x2="385.94858" y2="-431.67139"/>
	<line class="st1" x1="389.99338" y1="-455.10257" x2="377.85886" y2="-455.10257"/>
	<line class="st1" x1="389.99338" y1="-449.49231" x2="377.85886" y2="-449.49231"/>
	<line class="st1" x1="389.99338" y1="-431.67145" x2="377.85886" y2="-431.67145"/>
	<line class="st1" x1="385.94861" y1="-379.93076" x2="385.94861" y2="-360.71802"/>
	<line class="st1" x1="382.67569" y1="-360.71802" x2="382.67569" y2="-347.84735"/>
	<line class="st1" x1="305.01913" y1="-360.71802" x2="305.01913" y2="-347.84735"/>
	<line class="st1" x1="312.0788" y1="-360.71802" x2="312.0788" y2="-347.84735"/>
	<line class="st1" x1="319.13849" y1="-360.71802" x2="319.13849" y2="-347.84735"/>
	<line class="st1" x1="326.19818" y1="-360.71802" x2="326.19818" y2="-347.84735"/>
	<line class="st1" x1="333.25787" y1="-360.71802" x2="333.25787" y2="-347.84735"/>
	<line class="st1" x1="340.31757" y1="-360.71802" x2="340.31757" y2="-347.84735"/>
	<line class="st1" x1="347.37723" y1="-360.71802" x2="347.37723" y2="-347.84735"/>
	<line class="st1" x1="354.43692" y1="-360.71802" x2="354.43692" y2="-347.84735"/>
	<line class="st1" x1="361.49661" y1="-360.71802" x2="361.49661" y2="-347.84735"/>
	<line class="st1" x1="368.5563" y1="-360.71802" x2="368.5563" y2="-347.84735"/>
	<line class="st1" x1="375.616" y1="-360.71802" x2="375.616" y2="-347.84735"/>
	<line class="st1" x1="389.99338" y1="-476.43607" x2="301.25845" y2="-476.43616"/>
	<line class="st1" x1="389.99338" y1="-491.66525" x2="301.25845" y2="-491.66693"/>
	<line class="st1" x1="389.99338" y1="-486.23666" x2="301.25845" y2="-486.23831"/>
	<line class="st1" x1="207.91127" y1="-485.6593" x2="146.81049" y2="-485.6593"/>
	<line class="st1" x1="382.67569" y1="-491.66693" x2="382.67569" y2="-476.43607"/>
	<line class="st1" x1="305.01913" y1="-491.66693" x2="305.01913" y2="-476.43607"/>
	<line class="st1" x1="312.0788" y1="-491.66693" x2="312.0788" y2="-476.43607"/>
	<line class="st1" x1="319.13849" y1="-491.66693" x2="319.13849" y2="-476.43607"/>
	<line class="st1" x1="326.19818" y1="-491.66693" x2="326.19818" y2="-476.43607"/>
	<line class="st1" x1="333.25787" y1="-491.66693" x2="333.25787" y2="-476.43607"/>
	<line class="st1" x1="340.31757" y1="-491.66693" x2="340.31757" y2="-476.43607"/>
	<line class="st1" x1="347.37723" y1="-491.66693" x2="347.37723" y2="-476.43607"/>
	<line class="st1" x1="354.43692" y1="-491.66693" x2="354.43692" y2="-476.43607"/>
	<line class="st1" x1="361.49661" y1="-491.66693" x2="361.49661" y2="-476.43607"/>
	<line class="st1" x1="154.90205" y1="-491.66641" x2="154.90205" y2="-479.65219"/>
	<line class="st1" x1="162.38835" y1="-491.6669" x2="162.38835" y2="-479.65271"/>
	<line class="st1" x1="169.87465" y1="-491.6669" x2="169.87465" y2="-479.65271"/>
	<line class="st1" x1="177.36095" y1="-491.6669" x2="177.36095" y2="-479.65271"/>
	<line class="st1" x1="184.84724" y1="-491.6669" x2="184.84724" y2="-479.65271"/>
	<line class="st1" x1="192.33354" y1="-491.6669" x2="192.33354" y2="-479.65271"/>
	<line class="st1" x1="199.81984" y1="-491.66641" x2="199.81984" y2="-479.65219"/>
	<line class="st1" x1="368.5563" y1="-491.66693" x2="368.5563" y2="-476.43607"/>
	<line class="st1" x1="375.616" y1="-491.66693" x2="375.616" y2="-476.43607"/>
	<line class="st1" x1="389.99338" y1="-379.93085" x2="377.85886" y2="-379.93085"/>
	<line class="st1" x1="389.99338" y1="-374.32056" x2="377.85886" y2="-374.32056"/>
	<line class="st1" x1="385.94858" y1="-416.74429" x2="385.94858" y2="-393.31317"/>
	<line class="st1" x1="389.99338" y1="-416.74435" x2="377.85886" y2="-416.74435"/>
	<line class="st1" x1="389.99338" y1="-411.13406" x2="377.85886" y2="-411.13406"/>
	<line class="st1" x1="389.99338" y1="-393.31323" x2="377.85886" y2="-393.31323"/>
	<line class="st1" x1="217.72008" y1="-473.25345" x2="217.72008" y2="-312.40292"/>
	<line class="st1" x1="236.25914" y1="-473.25345" x2="236.25914" y2="-312.40292"/>
	<g>
		<line class="st1" x1="223.89981" y1="-455.10251" x2="223.89981" y2="-431.67139"/>
		<line class="st1" x1="230.0795" y1="-455.10251" x2="230.0795" y2="-431.67139"/>
		<line class="st1" x1="236.25914" y1="-455.10257" x2="217.72008" y2="-455.10257"/>
		<line class="st1" x1="236.25914" y1="-449.49231" x2="217.72008" y2="-449.49231"/>
		<line class="st1" x1="236.25914" y1="-431.67145" x2="217.72008" y2="-431.67145"/>
	</g>
	<g>
		<line class="st1" x1="223.89981" y1="-347.84735" x2="223.89981" y2="-324.41623"/>
		<line class="st1" x1="230.0795" y1="-347.84735" x2="230.0795" y2="-324.41623"/>
		<line class="st1" x1="236.25914" y1="-347.84741" x2="217.72008" y2="-347.84741"/>
		<line class="st1" x1="236.25914" y1="-342.23715" x2="217.72008" y2="-342.23715"/>
		<line class="st1" x1="236.25914" y1="-324.41629" x2="217.72008" y2="-324.41629"/>
	</g>
	<g>
		<line class="st1" x1="223.89981" y1="-379.93079" x2="223.89981" y2="-358.66953"/>
		<line class="st1" x1="230.0795" y1="-379.93079" x2="230.0795" y2="-358.66953"/>
		<line class="st1" x1="236.25914" y1="-379.93085" x2="217.72008" y2="-379.93085"/>
		<line class="st1" x1="236.25914" y1="-374.32056" x2="217.72008" y2="-374.32056"/>
		<line class="st1" x1="236.25914" y1="-358.66953" x2="217.72008" y2="-358.66953"/>
	</g>
	<g>
		<line class="st1" x1="223.89981" y1="-416.74429" x2="223.89981" y2="-393.31317"/>
		<line class="st1" x1="230.0795" y1="-416.74429" x2="230.0795" y2="-393.31317"/>
		<line class="st1" x1="236.25914" y1="-416.74435" x2="217.72008" y2="-416.74435"/>
		<line class="st1" x1="236.25914" y1="-411.13406" x2="217.72008" y2="-411.13406"/>
		<line class="st1" x1="236.25914" y1="-393.31323" x2="217.72008" y2="-393.31323"/>
	</g>
	<line class="st1" x1="247.70621" y1="-473.25345" x2="247.70621" y2="-312.40292"/>
	<line class="st1" x1="266.24527" y1="-473.25345" x2="266.24527" y2="-312.40292"/>
	<g>
		<line class="st1" x1="253.88594" y1="-455.10251" x2="253.88594" y2="-431.67139"/>
		<line class="st1" x1="260.06564" y1="-455.10251" x2="260.06564" y2="-431.67139"/>
		<line class="st1" x1="266.24527" y1="-455.10257" x2="247.70621" y2="-455.10257"/>
		<line class="st1" x1="266.24527" y1="-449.49231" x2="247.70621" y2="-449.49231"/>
		<line class="st1" x1="266.24527" y1="-431.67145" x2="247.70621" y2="-431.67145"/>
	</g>
	<g>
		<line class="st1" x1="253.88594" y1="-347.84735" x2="253.88594" y2="-324.41623"/>
		<line class="st1" x1="260.06564" y1="-347.84735" x2="260.06564" y2="-324.41623"/>
		<line class="st1" x1="266.24527" y1="-347.84741" x2="247.70621" y2="-347.84741"/>
		<line class="st1" x1="266.24527" y1="-342.23715" x2="247.70621" y2="-342.23715"/>
		<line class="st1" x1="266.24527" y1="-324.41629" x2="247.70621" y2="-324.41629"/>
	</g>
	<g>
		<line class="st1" x1="253.88596" y1="-379.93079" x2="253.88596" y2="-358.66953"/>
		<line class="st1" x1="260.06564" y1="-379.93079" x2="260.06564" y2="-358.66953"/>
		<line class="st1" x1="266.24527" y1="-379.93085" x2="247.70621" y2="-379.93085"/>
		<line class="st1" x1="266.24527" y1="-374.32056" x2="247.70621" y2="-374.32056"/>
		<line class="st1" x1="266.24527" y1="-358.66953" x2="247.70621" y2="-358.66953"/>
	</g>
	<g>
		<line class="st1" x1="253.88594" y1="-416.74429" x2="253.88594" y2="-393.31317"/>
		<line class="st1" x1="260.06564" y1="-416.74429" x2="260.06564" y2="-393.31317"/>
		<line class="st1" x1="266.24527" y1="-416.74435" x2="247.70621" y2="-416.74435"/>
		<line class="st1" x1="266.24527" y1="-411.13406" x2="247.70621" y2="-411.13406"/>
		<line class="st1" x1="266.24527" y1="-393.31323" x2="247.70621" y2="-393.31323"/>
	</g>
	<line class="st1" x1="275.60226" y1="-473.25345" x2="275.60226" y2="-312.40292"/>
	<line class="st1" x1="294.14133" y1="-473.25345" x2="294.14133" y2="-312.40292"/>
	<g>
		<line class="st1" x1="281.78198" y1="-455.10251" x2="281.78198" y2="-431.67139"/>
		<line class="st1" x1="287.96167" y1="-455.10251" x2="287.96167" y2="-431.67139"/>
		<line class="st1" x1="294.14133" y1="-455.10257" x2="275.60226" y2="-455.10257"/>
		<line class="st1" x1="294.14133" y1="-449.49231" x2="275.60226" y2="-449.49231"/>
		<line class="st1" x1="294.14133" y1="-431.67145" x2="275.60226" y2="-431.67145"/>
	</g>
	<g>
		<line class="st1" x1="281.78198" y1="-347.84735" x2="281.78198" y2="-324.41623"/>
		<line class="st1" x1="287.96167" y1="-347.84735" x2="287.96167" y2="-324.41623"/>
		<line class="st1" x1="294.14133" y1="-347.84741" x2="275.60226" y2="-347.84741"/>
		<line class="st1" x1="294.14133" y1="-342.23715" x2="275.60226" y2="-342.23715"/>
		<line class="st1" x1="294.14133" y1="-324.41629" x2="275.60226" y2="-324.41629"/>
	</g>
	<g>
		<line class="st1" x1="281.78198" y1="-379.93079" x2="281.78198" y2="-358.66953"/>
		<line class="st1" x1="287.96167" y1="-379.93079" x2="287.96167" y2="-358.66953"/>
		<line class="st1" x1="294.14133" y1="-379.93085" x2="275.60226" y2="-379.93085"/>
		<line class="st1" x1="294.14133" y1="-374.32056" x2="275.60226" y2="-374.32056"/>
		<line class="st1" x1="294.14133" y1="-358.66953" x2="275.60226" y2="-358.66953"/>
	</g>
	<g>
		<line class="st1" x1="281.78198" y1="-416.74429" x2="281.78198" y2="-393.31317"/>
		<line class="st1" x1="287.96167" y1="-416.74429" x2="287.96167" y2="-393.31317"/>
		<line class="st1" x1="294.14133" y1="-416.74435" x2="275.60226" y2="-416.74435"/>
		<line class="st1" x1="294.14133" y1="-411.13406" x2="275.60226" y2="-411.13406"/>
		<line class="st1" x1="294.14133" y1="-393.31323" x2="275.60226" y2="-393.31323"/>
	</g>
	<line class="st1" x1="183.64166" y1="-473.25345" x2="183.64166" y2="-312.40292"/>
	<line class="st1" x1="207.91072" y1="-473.25345" x2="207.91072" y2="-312.40292"/>
	<g>
		<line class="st1" x1="191.73141" y1="-444.67822" x2="191.73141" y2="-421.2471"/>
		<line class="st1" x1="199.82111" y1="-444.67822" x2="199.82111" y2="-421.2471"/>
		<line class="st1" x1="207.91072" y1="-444.67825" x2="183.64166" y2="-444.67825"/>
		<line class="st1" x1="207.91072" y1="-439.06799" x2="183.64166" y2="-439.06799"/>
		<line class="st1" x1="207.91072" y1="-421.24713" x2="183.64166" y2="-421.24713"/>
	</g>
	<line class="st1" x1="191.73141" y1="-473.25345" x2="191.73141" y2="-462.26181"/>
	<line class="st1" x1="199.81984" y1="-473.25345" x2="199.81984" y2="-462.26181"/>
	<line class="st1" x1="207.91072" y1="-462.26187" x2="183.64166" y2="-462.26187"/>
	<g>
		<line class="st1" x1="191.73141" y1="-335.63681" x2="191.73141" y2="-312.20569"/>
		<line class="st1" x1="199.82111" y1="-335.63681" x2="199.82111" y2="-312.20569"/>
		<line class="st1" x1="207.91072" y1="-335.63687" x2="183.64166" y2="-335.63687"/>
		<line class="st1" x1="207.91072" y1="-330.02661" x2="183.64166" y2="-330.02661"/>
		<line class="st1" x1="207.91072" y1="-312.20575" x2="183.64166" y2="-312.20575"/>
	</g>
	<g>
		<line class="st1" x1="191.73141" y1="-369.30014" x2="191.73141" y2="-348.03888"/>
		<line class="st1" x1="199.82111" y1="-369.30014" x2="199.82111" y2="-348.03888"/>
		<line class="st1" x1="207.91072" y1="-369.30017" x2="183.64166" y2="-369.30017"/>
		<line class="st1" x1="207.91072" y1="-363.68991" x2="183.64166" y2="-363.68991"/>
		<line class="st1" x1="207.91072" y1="-348.03888" x2="183.64166" y2="-348.03888"/>
	</g>
	<g>
		<line class="st1" x1="191.73141" y1="-406.67929" x2="191.73141" y2="-383.24817"/>
		<line class="st1" x1="199.82111" y1="-406.67929" x2="199.82111" y2="-383.24817"/>
		<line class="st1" x1="207.91072" y1="-406.67932" x2="183.64166" y2="-406.67932"/>
		<line class="st1" x1="207.91072" y1="-401.06906" x2="183.64166" y2="-401.06906"/>
		<line class="st1" x1="207.91072" y1="-383.2482" x2="183.64166" y2="-383.2482"/>
	</g>
	<line class="st1" x1="389.99338" y1="-499.65396" x2="131.56972" y2="-499.65469"/>
	<line class="st1" x1="389.99338" y1="-505.48459" x2="137.28693" y2="-505.48535"/>
	<line class="st1" x1="389.99338" y1="-511.31525" x2="143.11755" y2="-511.31598"/>
	<line class="st1" x1="389.99338" y1="-517.14587" x2="148.94818" y2="-517.14661"/>
	<line class="st1" x1="389.99338" y1="-522.9765" x2="154.77881" y2="-522.97729"/>
	<line class="st1" x1="389.99338" y1="-528.80713" x2="160.60942" y2="-528.80792"/>
	<line class="st1" x1="389.99338" y1="-473.25204" x2="131.56972" y2="-473.25345"/>
	<polyline class="st1" points="389.99338,-534.96515 166.85893,-535.05737 131.513,-499.71143 131.56972,-286.46448 	"/>
	<rect x="146.81104" y="-491.66599" class="st1" width="61.09969" height="12.01338"/>
	<line class="st1" x1="294.14133" y1="-485.6593" x2="217.72008" y2="-485.6593"/>
	<line class="st1" x1="226.98961" y1="-491.6669" x2="226.98961" y2="-479.65271"/>
	<line class="st1" x1="234.22488" y1="-491.6669" x2="234.22488" y2="-479.65271"/>
	<line class="st1" x1="241.46016" y1="-491.6669" x2="241.46016" y2="-479.65271"/>
	<line class="st1" x1="248.69542" y1="-491.6669" x2="248.69542" y2="-479.65271"/>
	<line class="st1" x1="255.93069" y1="-491.6669" x2="255.93069" y2="-479.65271"/>
	<line class="st1" x1="263.16595" y1="-491.6669" x2="263.16595" y2="-479.65271"/>
	<line class="st1" x1="270.40125" y1="-491.6669" x2="270.40125" y2="-479.65271"/>
	<line class="st1" x1="277.63651" y1="-491.6669" x2="277.63651" y2="-479.65271"/>
	<line class="st1" x1="284.8718" y1="-491.6669" x2="284.8718" y2="-479.65271"/>
	<rect x="217.72063" y="-491.66599" class="st1" width="76.42068" height="12.01338"/>
	<g>
		<line class="st1" x1="226.98991" y1="-305.50345" x2="226.98991" y2="-291.69296"/>
		<line class="st1" x1="236.25914" y1="-298.59775" x2="217.94498" y2="-298.59775"/>
		<rect x="217.7204" y="-305.50299" class="st1" width="18.53906" height="13.81049"/>
	</g>
	<g>
		<line class="st1" x1="284.8718" y1="-305.50345" x2="284.8718" y2="-291.69296"/>
		<line class="st1" x1="294.14099" y1="-298.59775" x2="275.82684" y2="-298.59775"/>
		<rect x="275.60226" y="-305.50299" class="st1" width="18.53906" height="13.81049"/>
	</g>
	<g>
		<line class="st1" x1="313.49533" y1="-305.50342" x2="313.49533" y2="-291.7005"/>
		<line class="st1" x1="321.91116" y1="-305.50342" x2="321.91116" y2="-291.69293"/>
		<line class="st1" x1="330.327" y1="-298.59772" x2="305.30475" y2="-298.59772"/>
		<rect x="305.0795" y="-305.50333" class="st1" width="25.24819" height="13.81123"/>
	</g>
	<g>
		<line class="st1" x1="343.38031" y1="-305.50342" x2="343.38031" y2="-291.7005"/>
		<line class="st1" x1="350.51218" y1="-305.50342" x2="350.51218" y2="-291.69293"/>
		<line class="st1" x1="357.64404" y1="-298.59772" x2="336.43933" y2="-298.59772"/>
		<rect x="336.24844" y="-305.50333" class="st1" width="21.3962" height="13.81123"/>
	</g>
	<g>
		<line class="st1" x1="256.97574" y1="-305.50345" x2="256.97574" y2="-291.69296"/>
		<line class="st1" x1="266.24496" y1="-298.59775" x2="247.93079" y2="-298.59775"/>
		<rect x="247.70621" y="-305.50299" class="st1" width="18.53906" height="13.81049"/>
	</g>
	<path class="st1" d="M171.08009-291.65674h-24.26906c0-8.79315,5.43282-15.92139,12.13452-15.92139
		C165.64728-307.57812,171.08009-300.44989,171.08009-291.65674z"/>
	<path class="st1" d="M313.77115-325.14929"/>
	<path class="st1" d="M313.77115-340.22629"/>
	<line class="st1" x1="305.68137" y1="-325.14932" x2="305.68137" y2="-312.20511"/>
	<line class="st1" x1="329.95041" y1="-325.14932" x2="329.95041" y2="-318.67749"/>
	<line class="st1" x1="336.90485" y1="-325.14932" x2="336.90485" y2="-318.67749"/>
	<line class="st1" x1="361.17389" y1="-325.14932" x2="361.17389" y2="-318.67749"/>
	<line class="st1" x1="312.0787" y1="-339.57071" x2="312.0787" y2="-318.67749"/>
	<line class="st1" x1="312.61792" y1="-318.67749" x2="312.61792" y2="-312.20486"/>
	<line class="st1" x1="319.5545" y1="-318.67749" x2="319.5545" y2="-312.20486"/>
	<line class="st1" x1="326.49106" y1="-318.67749" x2="326.49106" y2="-312.20486"/>
	<line class="st1" x1="333.42761" y1="-318.67749" x2="333.42761" y2="-312.20486"/>
	<line class="st1" x1="340.3642" y1="-318.67749" x2="340.3642" y2="-312.20486"/>
	<line class="st1" x1="347.30075" y1="-318.67749" x2="347.30075" y2="-312.20486"/>
	<line class="st1" x1="354.23734" y1="-318.67749" x2="354.23734" y2="-312.20486"/>
	<line class="st1" x1="361.17389" y1="-318.67749" x2="361.17389" y2="-312.20486"/>
	<line class="st1" x1="317.70361" y1="-341.07071" x2="317.70361" y2="-318.67749"/>
	<line class="st1" x1="323.61914" y1="-339.57071" x2="323.61914" y2="-318.67749"/>
	<path class="st1" d="M321.86084-325.14929"/>
	<path class="st1" d="M321.86084-340.22629"/>
	<line class="st1" x1="328.61398" y1="-332.41614" x2="307.01776" y2="-332.41614"/>
	<polyline class="st1" points="389.99338,-301.55765 366.91818,-301.55765 366.91818,-296.534 	"/>
	<polyline class="st1" points="389.99338,-296.534 364.0784,-296.534 364.0784,-291.51038 	"/>
	<polyline class="st1" points="389.99338,-291.51038 361.17389,-291.51038 361.17389,-286.79449 	"/>
	<path class="st1" d="M305.68137-325.14932c0-8.79315,5.4328-15.92139,12.13452-15.92139s12.13452,7.12823,12.13452,15.92139"/>
	<path class="st1" d="M336.90485-325.14932c0-8.79315,5.4328-15.92139,12.13452-15.92139s12.13452,7.12823,12.13452,15.92139"/>
	<path class="st1" d="M389.99338-342.92072c-11.15225,0-20.21643,7.95645-20.21643,17.77139v23.59167"/>
	<line class="st1" x1="191.73146" y1="-306.7337" x2="191.73146" y2="-291.65671"/>
	<line class="st1" x1="199.82114" y1="-306.7337" x2="199.82114" y2="-291.65671"/>
	<line class="st1" x1="206.57431" y1="-298.92355" x2="184.97809" y2="-298.92355"/>
	<path class="st1" d="M207.91072-291.65674h-24.26906c0-8.79315,5.43282-15.92139,12.13454-15.92139
		C202.47791-307.57812,207.91072-300.44989,207.91072-291.65674z"/>
</g>
</svg>
