<svg version="1.1" xmlns="http://www.w3.org/2000/svg" x="0" y="0" viewBox="0 0 624 312">
<style type="text/css">
	path { fill: #fff; }
</style>
<path d="M615.83246,47.06829L577.00745,5.66929H44.94332L6.04629,47.16228h-0.377v257.68207h610.16315V47.17827
	h-0.04999L615.83246,47.06829z M47.47231,11.50828h527.0072l33.45197,35.66999L14.03529,47.16228L47.47231,11.50828z
	 M366.87338,218.90332c-11.07001,0-20.07501,9.26599-20.07501,20.65401v19.019h-5.492h-3.422h-2.07501v-24.49802
	c0-14.215-11.24097-25.78-25.05896-25.78s-25.05804,11.565-25.05804,25.78v24.49802h-2.50098h-2.99597h-5.49203v-19.019
	c0-11.38802-9.005-20.65401-20.075-20.65401c-11.07101,0-20.07603,9.26599-20.07603,20.65401v19.019h-22.948v-60.90399h197.70609
	v60.90399H386.9494v-19.019C386.9494,228.16931,377.94339,218.90332,366.87338,218.90332 M381.67136,239.55733v19.019h-29.59601
	v-19.019c0-8.47801,6.63904-15.377,14.79803-15.377S381.67136,231.07932,381.67136,239.55733 M335.46738,272.20035h-49.43298
	v-7.78503h49.43298V272.20035z M291.5314,258.57632v-24.49802c0-10.99597,8.62097-19.94199,19.21899-19.94199
	c10.599,0,19.21997,8.94601,19.21997,19.94199v24.49802H291.5314z M344.3284,285.90634h-67.15497v-7.54199h67.15497V285.90634z
	 M269.42538,239.55733v19.019h-29.59602v-19.019c0-8.47801,6.63901-15.377,14.798-15.377
	C262.78635,224.18033,269.42538,231.07932,269.42538,239.55733 M211.60434,53.01727h197.70609v138.81601H211.60434V53.01727z
	 M11.5083,53.01727h194.25705v16.22302H11.5083V53.01727z M11.5083,75.07928h194.25705V258.5773H11.5083V75.07928z
	 M262.58035,299.00534H11.5083v-34.59003h268.6871v8.11005h-8.86102v13.46201h-8.75403V299.00534z M353.08237,299.00534h-84.664
	v-7.17899h84.664V299.00534z M609.99347,299.00534H358.92136v-13.01797h-8.75397v-13.46201h-8.86102v-8.11005h268.6871V299.00534z
	 M609.99347,258.57632H415.14941V75.07831h194.84406V258.57632z M609.99347,69.24029H415.14941V53.01727h194.84406V69.24029z"/>
<path class="st2" d="M224.91833,178.05231h33.60001v-40.38503h-33.60001V178.05231z M230.75735,143.5063h21.92201v28.707
	h-21.92201V143.5063z"/>
<path class="st2" d="M365.06137,178.05231h33.60001v-40.38503h-33.60001V178.05231z M370.90036,143.5063h21.92203v28.707
	h-21.92203V143.5063z"/>
<path class="st2" d="M318.34641,178.05231h33.59998v-40.38503h-33.59998V178.05231z M324.18539,143.5063h21.922v28.707h-21.922
	V143.5063z"/>
<path class="st2" d="M271.63239,178.05231h33.60098v-40.38503h-33.60098V178.05231z M277.47141,143.5063h21.92297v28.707
	h-21.92297V143.5063z"/>
<path class="st2" d="M224.91833,123.55228h33.60001V83.1673h-33.60001V123.55228z M230.75735,89.00629h21.92201v28.70701
	h-21.92201V89.00629z"/>
<path class="st2" d="M365.06137,123.55228h33.60001V83.1673h-33.60001V123.55228z M370.90036,89.00629h21.92203v28.70701
	h-21.92203V89.00629z"/>
<path class="st2" d="M318.34641,123.55228h33.59998V83.1673h-33.59998V123.55228z M324.18539,89.00629h21.922v28.70701h-21.922
	V89.00629z"/>
<path class="st2" d="M271.63239,123.55228h33.60098V83.1673h-33.60098V123.55228z M277.47141,89.00629h21.92297v28.70701
	h-21.92297V89.00629z"/>
<path class="st2" d="M22.72429,244.23033H56.3243v-40.38503H22.72429V244.23033z M28.56331,209.68433h21.922v28.70702h-21.922
	V209.68433z"/>
<path class="st2" d="M162.86534,244.23033h33.60103v-40.38503h-33.60103V244.23033z M168.70433,209.68433h21.92302v28.70702
	h-21.92302V209.68433z"/>
<path class="st2" d="M116.15232,244.23033h33.60102v-40.38503h-33.60102V244.23033z M121.99033,209.68433h21.92301v28.70702
	h-21.92301V209.68433z"/>
<path class="st2" d="M69.43832,244.23033h33.60103v-40.38503H69.43832V244.23033z M75.27731,209.68433h21.923v28.70702h-21.923
	V209.68433z"/>
<path class="st2" d="M22.72429,185.83832H56.3243v-40.38503H22.72429V185.83832z M28.56331,151.29131h21.922v28.70802h-21.922
	V151.29131z"/>
<path class="st2" d="M162.86534,185.83832h33.60103v-40.38503h-33.60103V185.83832z M168.70433,151.29131h21.92302v28.70802
	h-21.92302V151.29131z"/>
<path class="st2" d="M116.15232,185.83832h33.60102v-40.38503h-33.60102V185.83832z M121.99033,151.29131h21.92301v28.70802
	h-21.92301V151.29131z"/>
<path class="st2" d="M69.43832,185.83832h33.60103v-40.38503H69.43832V185.83832z M75.27731,151.29131h21.923v28.70802h-21.923
	V151.29131z"/>
<path class="st2" d="M22.72429,127.4463H56.3243V87.06128H22.72429V127.4463z M28.56331,92.90027h21.922v28.70701h-21.922
	V92.90027z"/>
<path class="st2" d="M162.86534,127.4463h33.60103V87.06128h-33.60103V127.4463z M168.70433,92.90027h21.92302v28.70701h-21.92302
	V92.90027z"/>
<path class="st2" d="M116.15232,127.4463h33.60102V87.06128h-33.60102V127.4463z M121.99033,92.90027h21.92301v28.70701h-21.92301
	V92.90027z"/>
<path class="st2" d="M69.43832,127.4463h33.60103V87.06128H69.43832V127.4463z M75.27731,92.90027h21.923v28.70701h-21.923
	V92.90027z"/>
<path class="st2" d="M458.79443,203.84531h-33.60199v40.38503h33.60199V203.84531z M452.95642,238.39134h-21.92401v-28.70702
	h21.92401V238.39134z"/>
<path class="st2" d="M598.93549,203.84531h-33.59998v40.38503h33.59998V203.84531z M593.0965,238.39134h-21.922v-28.70702h21.922
	V238.39134z"/>
<path class="st2" d="M552.22241,203.84531h-33.59998v40.38503h33.59998V203.84531z M546.38342,238.39134h-21.922v-28.70702h21.922
	V238.39134z"/>
<path class="st2" d="M505.50742,203.84531h-33.60001v40.38503h33.60001V203.84531z M499.6684,238.39134h-21.922v-28.70702h21.922
	V238.39134z"/>
<path class="st2" d="M458.79443,145.45232h-33.60199v40.38503h33.60199V145.45232z M452.95642,179.99933h-21.92401v-28.70802
	h21.92401V179.99933z"/>
<path class="st2" d="M598.93549,145.45232h-33.59998v40.38503h33.59998V145.45232z M593.0965,179.99933h-21.922v-28.70802h21.922
	V179.99933z"/>
<path class="st2" d="M552.22241,145.45232h-33.59998v40.38503h33.59998V145.45232z M546.38342,179.99933h-21.922v-28.70802h21.922
	V179.99933z"/>
<path class="st2" d="M505.50742,145.45232h-33.60001v40.38503h33.60001V145.45232z M499.6684,179.99933h-21.922v-28.70802h21.922
	V179.99933z"/>
<path class="st2" d="M458.79443,87.06128h-33.60199v40.38502h33.60199V87.06128z M452.95642,121.60731h-21.92401V92.90027
	h21.92401V121.60731z"/>
<path class="st2" d="M598.93549,87.06128h-33.59998v40.38502h33.59998V87.06128z M593.0965,121.60731h-21.922V92.90027h21.922
	V121.60731z"/>
<path class="st2" d="M552.22241,87.06128h-33.59998v40.38502h33.59998V87.06128z M546.38342,121.60731h-21.922V92.90027h21.922
	V121.60731z"/>
<path class="st2" d="M505.50742,87.06128h-33.60001v40.38502h33.60001V87.06128z M499.6684,121.60731h-21.922V92.90027h21.922
	V121.60731z"/>
</svg>
